<?xml version="1.0" encoding="UTF-8"?>
<!DOCTYPE svg PUBLIC "-//W3C//DTD SVG 1.1//EN" "http://www.w3.org/Graphics/SVG/1.1/DTD/svg11.dtd">
<!-- Creator: CorelDRAW -->
<svg xmlns="http://www.w3.org/2000/svg" xml:space="preserve" width="90.5193mm" height="129.394mm" version="1.1" style="shape-rendering:geometricPrecision; text-rendering:geometricPrecision; image-rendering:optimizeQuality; fill-rule:evenodd; clip-rule:evenodd"
viewBox="0 0 432.64 618.45"
 xmlns:xlink="http://www.w3.org/1999/xlink"
 xmlns:xodm="http://www.corel.com/coreldraw/odm/2003">
 <defs>
  <style type="text/css">
   <![CDATA[
    .fil1 {fill:#2B2A29;fill-rule:nonzero}
    .fil0 {fill:url(#id0);fill-rule:nonzero}
   ]]>
  </style>
  <linearGradient id="id0" gradientUnits="userSpaceOnUse" x1="103.99" y1="33.63" x2="498.61" y2="507.27">
   <stop offset="0" style="stop-opacity:1; stop-color:#6D2F85"/>
   <stop offset="1" style="stop-opacity:1; stop-color:#274897"/>
  </linearGradient>
 </defs>
 <g id="Layer_x0020_1">
  <metadata id="CorelCorpID_0Corel-Layer"/>
  <path class="fil0" d="M371.5 122.88c-4.23,-36.38 -21.08,-66.27 -49.32,-89.06 -40.81,-32.94 -87.64,-41.15 -137.56,-27.53 -50.74,13.85 -84.54,47.74 -104.56,95.78 -6.42,15.41 -9.55,31.65 -9.8,48.4 0.01,5.35 0.01,10.7 0.02,16.05 0.1,8.36 1.3,16.6 3.13,24.73 4.37,19.41 12.69,37.07 24.58,52.96 11.05,14.76 23.9,27.1 38.72,36.78 0.05,0.03 0.1,0.06 0.15,0.1 0.31,0.21 0.63,0.4 0.95,0.6 13.46,8.4 36.25,15.29 36.25,15.29 0,0 -31.02,-21.45 -40.46,-30.09 -0.02,-0.01 -0.03,-0.03 -0.04,-0.04 -7.21,-6.15 -13.87,-12.77 -19.93,-19.88 -13.16,-16.11 -20.57,-32.86 -20.57,-32.86l0 -0c13.4,20.37 29.9,37.74 50.45,51.01 10.28,6.64 21.11,12.25 32.84,16.02 0.23,0.08 0.43,0.13 0.62,0.18l0 -20.59c-0.26,-0.16 -0.55,-0.32 -0.86,-0.47 -11.45,-5.5 -21.47,-13.05 -30.2,-22.22 -26.67,-28.02 -36.71,-61.37 -31.28,-99.49 3.13,-21.98 12.52,-41.22 26.59,-58.18 27.18,-32.75 61.72,-49.22 104.33,-42.07 20.8,3.49 38.44,11.01 53.17,22.06 0.02,0.01 0.04,0.03 0.06,0.04 35.37,25.59 45.43,65.01 45.43,65.01 0.44,-6.32 0.02,-12.19 -1.35,-18.08 -4.69,-20.05 -16.01,-36.06 -31.07,-49.36 -28.4,-25.07 -61.34,-39.62 -99.64,-40.82 -5.81,0 -11.61,0 -17.42,0 0,0 28.25,-5.66 60.88,2.54 32.69,8.91 60.12,26.8 82.42,53.19 14.33,16.95 24.68,35.87 28.25,58.13 0.99,6.19 1.49,12.43 2.36,18.66 3.3,-8.73 3.92,-17.78 2.87,-26.77zm-10.59 42.05c-4.21,-2.99 -8.63,-5.7 -12.74,-8.82 -9.1,-6.9 -17.25,-14.66 -20.63,-26.09 -2.28,-7.74 -3.49,-15.73 -4.46,-24.24l-33.49 60.88c-3.43,6.23 -10.36,9.81 -17.39,8.73 -3.8,-0.58 -8.18,-2.15 -12.9,-5.49l-2.8 -2.16 -0.04 -0.03 -12.01 -9.29 -5.05 -3.9 8.17 10.37 -47.43 -12.8 17.18 16.34c4.6,4.47 9.17,8.95 13.54,13.64 10.5,11.25 16.05,24.57 15.25,40.23 -0.84,16.56 -9.07,29.68 -19.32,41.83 2.68,-6.57 4.75,-13.24 6.63,-19.99 5.82,-20.93 4.01,-40.29 -11.15,-57.2 -1.96,-2.19 -3.99,-4.3 -6.05,-6.38l-27.15 -28.79 6.4 -10.88 18.59 4.46c0.85,0.21 1.7,0.41 2.55,0.61l0.13 0.03 0 -0c3.59,0.84 7.2,1.58 10.84,2.12 7.05,1.05 14.2,1.38 20.37,-3.26 4.03,-3.03 7.23,-6.86 6.56,-12.24 -0.66,-5.28 -4.11,-8.64 -9.06,-10.4 -5.02,-1.79 -10.06,-3.47 -15.08,-5.25 -15.8,-5.61 -31.56,-11.34 -47.4,-16.81 -6.48,-2.24 -10.47,-1.07 -13.47,4.11 -10.37,17.93 -20.51,36 -30.72,54.03 -2.15,3.79 -1.99,7.6 0.56,11.08 2.51,3.42 5.19,6.71 7.97,9.91 15.36,17.69 31.78,34.43 46.64,52.55 6.22,7.59 11.93,15.51 14.83,24.71l0 54.69 -36.49 0 0 38.35 36.49 0 0 32.24 39 0 0 -32.24 36.16 0 0 -38.35 -36.7 0 0 -9.83 16.13 0c1.83,0 3.39,-1.36 3.6,-3.17 0,-0.02 0,-0.03 0,-0.04 1.43,-12.44 9.9,-21.51 21.96,-23.84 6.79,-1.31 13.68,-1.86 20.61,-2.08 7.88,-0.26 15.66,-1.25 22.93,-4.61 8.2,-3.78 11.71,-9.42 10.95,-17.29 -0.3,-3.09 -2.1,-5.53 -3.29,-8.23 -2.7,-6.1 -1.41,-9.61 4.56,-12.54 0.98,-0.48 1.96,-0.96 2.89,-1.52 4.04,-2.42 4.5,-5.62 1.7,-9.39 -1.82,-2.46 -4.82,-2.81 -7.15,-4.53 2.75,-0.98 5.26,-2.11 7.56,-3.81 6.38,-4.7 6.31,-4.88 0.46,-10.49 -0.59,-0.57 -1.15,-1.16 -1.65,-1.8 -5.32,-6.81 -4.31,-12.03 3.19,-16.39 3.67,-2.13 7.33,-4.27 10.19,-7.51 3.44,-3.9 3.26,-6.22 -0.97,-9.23zm-98.14 -7.19l15.26 5.52c1.77,0.64 3.73,-0.16 4.54,-1.85l26.27 -54.52c0.89,-1.85 0.09,-4.07 -1.78,-4.92l-13.64 -6.21c-1.79,-0.81 -3.9,-0.07 -4.79,1.68l-27.89 55.21c-0.99,1.96 -0.04,4.35 2.02,5.1zm19.79 -78.9l-24.32 -10.82c-1.77,-0.79 -3.85,-0.09 -4.79,1.61l-19.52 35.27c-1.1,1.99 -0.19,4.49 1.94,5.3l25.44 9.68c1.75,0.67 3.73,-0.07 4.62,-1.72l18.39 -34.13c1.03,-1.92 0.22,-4.3 -1.77,-5.19zm-43.28 -17.65l-24.31 -10.82c-1.77,-0.79 -3.85,-0.09 -4.79,1.61l-19.52 35.27c-1.1,1.99 -0.18,4.49 1.94,5.3l25.45 9.69c1.75,0.67 3.73,-0.07 4.62,-1.72l18.39 -34.13c1.03,-1.92 0.22,-4.3 -1.77,-5.19z"/>
  <path class="fil1" d="M115.31 446.99c-2.27,-6.46 -3.4,-8.92 -4.73,-8.92 -1.13,0 -1.89,0.95 -4.73,8.73l-40.08 107.88 -0.38 0c-2.84,-10.05 -22.5,-79.49 -25.33,-91.62 -1.89,-8.16 -3.59,-14.78 -3.59,-17.23 0,-2.46 1.32,-3.97 2.46,-4.54 2.27,-1.13 5.86,-1.13 7.37,-1.13 0.94,0 1.89,-0.19 1.89,-1.32 0,-0.76 -0.76,-1.32 -3.4,-1.32 -9.45,0 -17.77,0.57 -19.47,0.57 -2.08,0 -12.48,-0.57 -22.31,-0.57 -1.89,0 -3.02,0.38 -3.02,1.32 0,1.13 0.76,1.32 1.7,1.32 1.32,0 6.05,0.19 8.51,1.13 4.91,1.89 7.37,4.73 10.4,14.74l33.65 112.1c3.78,12.85 4.73,14.93 6.62,14.93 2.27,0 3.21,-2.08 6.24,-10.02 6.81,-17.58 32.7,-86.77 39.51,-104.92l0.38 0 37.05 105.11c2.65,7.37 3.78,9.83 5.67,9.83 2.08,0 3.02,-2.27 7.94,-16.26 7.37,-21.17 26.47,-81.29 34.78,-105.29 3.59,-10.4 6.62,-18.34 12.29,-20.42 2.08,-0.76 5.67,-0.94 6.43,-0.94 1.13,0 1.7,-0.57 1.7,-1.51 0,-0.76 -0.95,-1.13 -2.65,-1.13 -5.86,0 -13.99,0.57 -15.31,0.57 -1.7,0 -9.64,-0.57 -19.28,-0.57 -2.27,0 -3.21,0.38 -3.21,1.32 0,0.76 0.76,1.32 1.7,1.32 8.7,0 10.78,2.27 10.78,5.67 0,2.46 -0.19,5.1 -2.08,12.1 -6.62,24.2 -24.01,79.02 -29.11,96.41l-0.76 0 -37.62 -107.34zm121.15 45.34c0,-29.49 0,-34.78 0.38,-40.83 0.38,-6.62 1.89,-9.83 6.99,-10.78 2.27,-0.38 3.4,-0.57 4.73,-0.57 0.76,0 1.51,-0.38 1.51,-1.13 0,-1.13 -0.95,-1.51 -3.02,-1.51 -5.67,0 -17.58,0.57 -18.53,0.57 -0.95,0 -12.85,-0.57 -19.09,-0.57 -2.08,0 -3.02,0.38 -3.02,1.51 0,0.76 0.76,1.13 1.51,1.13 1.32,0 3.78,0.19 5.86,0.76 4.16,0.94 6.05,4.16 6.43,10.59 0.38,6.05 0.38,11.34 0.38,40.83l0 33.27c0,18.15 0,33.08 -0.94,41.02 -0.76,5.48 -1.7,9.64 -5.48,10.4 -1.7,0.38 -3.97,0.76 -5.67,0.76 -1.13,0 -1.51,0.57 -1.51,1.13 0,1.13 0.95,1.51 3.02,1.51 5.67,0 17.58,-0.57 18.53,-0.57 0.94,0 12.85,0.57 23.25,0.57 2.08,0 3.02,-0.57 3.02,-1.51 0,-0.57 -0.38,-1.13 -1.51,-1.13 -1.7,0 -5.86,-0.38 -8.51,-0.76 -5.67,-0.76 -6.81,-4.91 -7.37,-10.4 -0.95,-7.94 -0.95,-22.87 -0.95,-41.02l0 -33.27zm57.45 90.74c10.21,0 20.42,-2.27 28.54,-7.94 13.04,-9.26 16.07,-23.63 16.07,-31.38 0,-15.12 -5.29,-26.84 -27.6,-44.42l-5.29 -4.16c-18.15,-14.18 -23.06,-20.98 -23.06,-31.76 0,-13.8 10.21,-21.93 23.25,-21.93 17.39,0 22.5,7.94 23.63,10.02 1.13,2.08 2.27,7.18 2.46,9.45 0.19,1.51 0.38,2.46 1.51,2.46 0.95,0 1.32,-1.32 1.32,-4.35 0,-12.85 0.76,-19.09 0.76,-20.04 0,-0.95 -0.38,-1.32 -1.89,-1.32 -1.51,0 -3.02,-0.19 -6.62,-0.95 -4.73,-1.13 -10.21,-1.89 -17.58,-1.89 -24.01,0 -39.13,13.8 -39.13,34.03 0,12.85 4.54,24.58 24.58,41.02l8.51 6.99c16.26,13.42 21.74,20.98 21.74,34.03 0,12.1 -8.88,25.14 -27.03,25.14 -12.67,0 -25.14,-5.29 -27.98,-19.28 -0.57,-2.65 -0.57,-5.29 -0.57,-6.99 0,-1.51 -0.19,-2.08 -1.32,-2.08 -0.94,0 -1.32,0.95 -1.51,3.02 -0.19,3.02 -0.94,10.59 -0.94,20.04 0,5.1 0.19,5.86 2.84,7.18 7.75,3.78 16.45,5.1 25.33,5.1zm71.43 -57.47c0,18.15 0,33.08 -0.94,41.02 -0.76,5.48 -1.7,9.64 -5.48,10.4 -1.7,0.38 -3.97,0.76 -5.67,0.76 -1.13,0 -1.51,0.57 -1.51,1.13 0,1.13 0.95,1.51 3.02,1.51 2.84,0 7.18,-0.38 10.96,-0.38 3.97,-0.19 7.18,-0.19 7.56,-0.19 2.84,0 7.37,0.19 14.74,0.57 7.37,0.19 17.77,0.57 31.95,0.57 7.37,0 8.88,0 10.21,-4.91 0.94,-3.97 2.46,-16.82 2.46,-18.34 0,-1.32 0,-2.84 -1.13,-2.84 -0.94,0 -1.32,0.76 -1.7,2.84 -1.32,7.75 -3.59,11.53 -8.51,13.61 -4.92,2.08 -13.23,2.08 -18.15,2.08 -18.53,0 -21.36,-2.46 -21.93,-15.5 -0.19,-3.97 0,-25.9 0,-32.33l0 -16.64c0,-0.76 0.38,-1.32 1.32,-1.32 3.21,0 21.93,0.38 27.03,0.95 7.37,0.76 9.07,3.97 9.83,6.62 0.76,2.46 0.76,4.35 0.76,6.24 0,0.94 0.38,1.7 1.32,1.7 1.32,0 1.32,-2.08 1.32,-3.59 0,-1.32 0.38,-8.32 0.76,-12.1 0.57,-6.24 1.51,-9.45 1.51,-10.59 0,-1.13 -0.38,-1.51 -0.95,-1.51 -0.76,0 -1.51,0.95 -2.84,2.46 -1.7,1.89 -4.35,2.27 -8.88,2.65 -4.35,0.38 -27.6,0.38 -30.06,0.38 -0.94,0 -1.13,-0.57 -1.13,-1.89l0 -52.17c0,-1.32 0.38,-1.89 1.13,-1.89 2.08,0 22.68,0.19 25.9,0.57 10.21,1.13 12.1,3.4 13.42,6.43 0.94,2.27 1.13,5.48 1.13,6.81 0,1.51 0.38,2.46 1.51,2.46 0.76,0 1.13,-1.13 1.32,-2.08 0.38,-2.27 0.76,-10.59 0.95,-12.48 0.57,-5.29 1.51,-7.56 1.51,-8.88 0,-0.95 -0.19,-1.7 -0.76,-1.7 -0.94,0 -1.7,0.76 -2.65,0.95 -1.51,0.38 -4.54,0.76 -8.13,0.94 -4.35,0.19 -41.97,0.19 -43.29,0.19l-7.75 -0.38c-4.16,-0.19 -9.26,-0.19 -13.61,-0.19 -2.08,0 -3.02,0.38 -3.02,1.51 0,0.76 0.76,1.13 1.51,1.13 1.7,0 4.91,0.19 6.43,0.57 6.24,1.32 7.75,4.35 8.13,10.78 0.38,6.05 0.38,11.34 0.38,40.83l0 33.27z"/>
  <path class="fil1" d="M34.42 604.17l-4.1 14.13 -2.07 0 -3.29 -11.38 -3.41 11.38 -2.05 0.02 -3.95 -14.15 1.97 0 3.08 11.98 3.41 -11.98 2.07 0 3.24 11.94 3.1 -11.94 1.99 0zm8.44 14.28c-1.31,0 -2.51,-0.31 -3.59,-0.92 -1.08,-0.62 -1.94,-1.47 -2.57,-2.58 -0.63,-1.1 -0.94,-2.34 -0.94,-3.72 0,-1.38 0.31,-2.62 0.94,-3.72 0.63,-1.1 1.48,-1.96 2.57,-2.58 1.08,-0.62 2.28,-0.92 3.59,-0.92 1.32,0 2.53,0.31 3.61,0.92 1.08,0.62 1.93,1.47 2.56,2.57 0.62,1.09 0.93,2.34 0.93,3.73 0,1.39 -0.31,2.64 -0.93,3.73 -0.62,1.09 -1.47,1.95 -2.56,2.57 -1.08,0.62 -2.28,0.92 -3.61,0.92zm0 -1.6c0.99,0 1.88,-0.23 2.67,-0.69 0.79,-0.46 1.41,-1.12 1.87,-1.97 0.45,-0.85 0.68,-1.84 0.68,-2.96 0,-1.14 -0.23,-2.13 -0.68,-2.97 -0.45,-0.85 -1.07,-1.5 -1.86,-1.96 -0.78,-0.46 -1.68,-0.69 -2.68,-0.69 -1,0 -1.89,0.23 -2.68,0.69 -0.78,0.46 -1.4,1.11 -1.86,1.96 -0.45,0.85 -0.68,1.84 -0.68,2.97 0,1.12 0.23,2.11 0.68,2.96 0.45,0.85 1.07,1.51 1.87,1.97 0.79,0.46 1.68,0.69 2.67,0.69zm23.87 -12.57l0 14.03 -1.85 0 0 -10.46 -4.66 10.46 -1.3 0 -4.68 -10.48 0 10.48 -1.85 0 0 -14.03 1.99 0 5.19 11.6 5.19 -11.6 1.97 0zm4.97 1.4l0 4.73 5.15 0 0 1.52 -5.15 0 0 4.87 5.76 0 0 1.52 -7.6 0 0 -14.15 7.6 0 0 1.52 -5.76 0zm19.67 12.63l-1.85 0 -7.42 -11.25 0 11.25 -1.85 0 0 -14.15 1.85 0 7.42 11.23 0 -11.23 1.85 0 0 14.15zm10.4 -14.13l0 14.13 -1.85 0 0 -14.13 1.85 0zm14.26 14.13l-1.85 0 -7.42 -11.25 0 11.25 -1.85 0 0 -14.15 1.85 0 7.42 11.23 0 -11.23 1.85 0 0 14.15zm13.04 0.14c-0.93,0 -1.77,-0.17 -2.5,-0.5 -0.74,-0.33 -1.31,-0.79 -1.73,-1.38 -0.42,-0.59 -0.64,-1.27 -0.65,-2.04l1.97 0c0.07,0.66 0.34,1.22 0.82,1.67 0.48,0.45 1.18,0.68 2.1,0.68 0.88,0 1.57,-0.22 2.08,-0.66 0.51,-0.44 0.76,-1 0.76,-1.69 0,-0.54 -0.15,-0.98 -0.45,-1.32 -0.3,-0.34 -0.67,-0.6 -1.12,-0.77 -0.45,-0.18 -1.05,-0.36 -1.81,-0.57 -0.93,-0.24 -1.68,-0.49 -2.24,-0.73 -0.56,-0.24 -1.04,-0.63 -1.44,-1.15 -0.4,-0.52 -0.6,-1.22 -0.6,-2.1 0,-0.77 0.2,-1.45 0.59,-2.05 0.39,-0.59 0.94,-1.05 1.65,-1.38 0.71,-0.32 1.52,-0.49 2.44,-0.49 1.32,0 2.41,0.33 3.25,0.99 0.85,0.66 1.32,1.54 1.43,2.64l-2.03 0c-0.07,-0.54 -0.35,-1.02 -0.85,-1.43 -0.5,-0.41 -1.16,-0.62 -1.99,-0.62 -0.77,0 -1.4,0.2 -1.89,0.6 -0.49,0.4 -0.73,0.96 -0.73,1.67 0,0.51 0.15,0.93 0.44,1.26 0.29,0.32 0.65,0.57 1.07,0.74 0.43,0.17 1.02,0.36 1.79,0.58 0.93,0.26 1.68,0.51 2.25,0.76 0.57,0.25 1.05,0.64 1.46,1.16 0.41,0.52 0.61,1.23 0.61,2.12 0,0.69 -0.18,1.34 -0.55,1.95 -0.36,0.61 -0.91,1.1 -1.62,1.48 -0.72,0.38 -1.56,0.57 -2.53,0.57zm16.12 -14.28l0 1.5 -3.85 0 0 12.63 -1.85 0 0 -12.63 -3.87 0 0 -1.5 9.57 0zm9.71 14.13l-3.37 -5.78 -2.23 0 0 5.78 -1.85 0 0 -14.13 4.56 0c1.07,0 1.97,0.18 2.71,0.55 0.74,0.37 1.29,0.86 1.65,1.48 0.37,0.62 0.55,1.33 0.55,2.13 0,0.97 -0.28,1.83 -0.84,2.58 -0.56,0.74 -1.4,1.24 -2.52,1.48l3.55 5.92 -2.21 0zm-5.6 -7.26l2.72 0c1,0 1.75,-0.25 2.25,-0.74 0.5,-0.49 0.75,-1.15 0.75,-1.98 0,-0.84 -0.25,-1.49 -0.74,-1.95 -0.49,-0.46 -1.25,-0.69 -2.26,-0.69l-2.72 0 0 5.35zm18.84 4.12l-6.16 0 -1.14 3.14 -1.95 0 5.11 -14.05 2.13 0 5.09 14.05 -1.95 0 -1.14 -3.14zm-0.53 -1.5l-2.56 -7.14 -2.56 7.14 5.11 0zm14.54 -9.49l0 1.5 -3.85 0 0 12.63 -1.85 0 0 -12.63 -3.87 0 0 -1.5 9.57 0zm4.12 1.5l0 4.73 5.15 0 0 1.52 -5.15 0 0 4.87 5.76 0 0 1.52 -7.6 0 0 -14.15 7.6 0 0 1.52 -5.76 0zm19.27 2.6c-0.39,-0.82 -0.96,-1.46 -1.7,-1.92 -0.74,-0.45 -1.61,-0.68 -2.6,-0.68 -0.99,0 -1.88,0.23 -2.67,0.68 -0.79,0.45 -1.41,1.1 -1.87,1.95 -0.45,0.85 -0.68,1.82 -0.68,2.93 0,1.11 0.23,2.08 0.68,2.92 0.45,0.84 1.07,1.48 1.87,1.94 0.79,0.45 1.68,0.68 2.67,0.68 1.38,0 2.51,-0.41 3.41,-1.24 0.89,-0.82 1.41,-1.94 1.56,-3.35l-5.64 0 0 -1.5 7.6 0 0 1.42c-0.11,1.16 -0.47,2.23 -1.1,3.19 -0.62,0.97 -1.44,1.73 -2.45,2.29 -1.01,0.56 -2.14,0.84 -3.39,0.84 -1.31,0 -2.51,-0.31 -3.59,-0.92 -1.08,-0.62 -1.94,-1.47 -2.57,-2.57 -0.63,-1.09 -0.94,-2.33 -0.94,-3.71 0,-1.38 0.31,-2.62 0.94,-3.72 0.63,-1.1 1.48,-1.96 2.57,-2.58 1.08,-0.62 2.28,-0.92 3.59,-0.92 1.5,0 2.83,0.37 3.98,1.12 1.16,0.74 2,1.79 2.53,3.14l-2.21 0zm14.97 -4.1l-4.6 8.8 0 5.33 -1.85 0 0 -5.33 -4.62 -8.8 2.05 0 3.49 7.16 3.49 -7.16 2.05 0zm15.72 10.99l-6.16 0 -1.14 3.14 -1.95 0 5.11 -14.05 2.13 0 5.09 14.05 -1.95 0 -1.14 -3.14zm-0.53 -1.5l-2.56 -7.14 -2.56 7.14 5.11 0zm16.95 4.64l-1.85 0 -7.42 -11.25 0 11.25 -1.85 0 0 -14.15 1.85 0 7.42 11.23 0 -11.23 1.85 0 0 14.15zm7.54 -14.13c1.54,0 2.88,0.29 4,0.86 1.13,0.57 1.99,1.4 2.6,2.46 0.6,1.07 0.9,2.33 0.9,3.77 0,1.45 -0.3,2.7 -0.9,3.76 -0.6,1.06 -1.47,1.87 -2.6,2.43 -1.13,0.56 -2.46,0.84 -4,0.84l-4.4 0 0 -14.13 4.4 0zm0 12.61c1.82,0 3.22,-0.48 4.18,-1.45 0.96,-0.97 1.44,-2.32 1.44,-4.07 0,-1.76 -0.48,-3.13 -1.45,-4.12 -0.97,-0.99 -2.36,-1.48 -4.17,-1.48l-2.56 0 0 11.11 2.56 0zm17.2 -11.11l0 4.73 5.15 0 0 1.52 -5.15 0 0 4.87 5.76 0 0 1.52 -7.6 0 0 -14.15 7.6 0 0 1.52 -5.76 0zm10.4 11.13l4.95 0 0 1.5 -6.79 0 0 -14.13 1.85 0 0 12.63zm8.76 -11.13l0 4.73 5.15 0 0 1.52 -5.15 0 0 4.87 5.76 0 0 1.52 -7.6 0 0 -14.15 7.6 0 0 1.52 -5.76 0zm7.87 5.56c0,-1.38 0.31,-2.62 0.93,-3.72 0.62,-1.1 1.47,-1.96 2.55,-2.59 1.07,-0.62 2.27,-0.93 3.58,-0.93 1.54,0 2.89,0.37 4.04,1.12 1.15,0.74 1.99,1.8 2.51,3.16l-2.21 0c-0.39,-0.85 -0.96,-1.51 -1.69,-1.97 -0.74,-0.46 -1.62,-0.69 -2.65,-0.69 -0.99,0 -1.87,0.23 -2.66,0.69 -0.78,0.46 -1.4,1.11 -1.85,1.96 -0.45,0.85 -0.67,1.84 -0.67,2.97 0,1.12 0.22,2.11 0.67,2.95 0.45,0.85 1.06,1.5 1.85,1.96 0.78,0.46 1.67,0.69 2.66,0.69 1.03,0 1.91,-0.23 2.65,-0.68 0.74,-0.45 1.3,-1.11 1.69,-1.96l2.21 0c-0.53,1.35 -1.37,2.4 -2.51,3.13 -1.15,0.74 -2.49,1.11 -4.04,1.11 -1.31,0 -2.5,-0.31 -3.58,-0.92 -1.07,-0.62 -1.92,-1.47 -2.55,-2.57 -0.62,-1.09 -0.93,-2.33 -0.93,-3.71zm25.04 -7.06l0 1.5 -3.85 0 0 12.63 -1.85 0 0 -12.63 -3.87 0 0 -1.5 9.57 0zm4.12 0l0 14.13 -1.85 0 0 -14.13 1.85 0zm9.55 14.28c-1.31,0 -2.51,-0.31 -3.59,-0.92 -1.08,-0.62 -1.94,-1.47 -2.57,-2.58 -0.63,-1.1 -0.94,-2.34 -0.94,-3.72 0,-1.38 0.31,-2.62 0.94,-3.72 0.63,-1.1 1.48,-1.96 2.57,-2.58 1.08,-0.62 2.28,-0.92 3.59,-0.92 1.32,0 2.53,0.31 3.61,0.92 1.08,0.62 1.93,1.47 2.56,2.57 0.62,1.09 0.93,2.34 0.93,3.73 0,1.39 -0.31,2.64 -0.93,3.73 -0.62,1.09 -1.47,1.95 -2.56,2.57 -1.08,0.62 -2.28,0.92 -3.61,0.92zm0 -1.6c0.99,0 1.88,-0.23 2.67,-0.69 0.79,-0.46 1.41,-1.12 1.87,-1.97 0.45,-0.85 0.68,-1.84 0.68,-2.96 0,-1.14 -0.23,-2.13 -0.68,-2.97 -0.45,-0.85 -1.07,-1.5 -1.86,-1.96 -0.78,-0.46 -1.68,-0.69 -2.68,-0.69 -1,0 -1.89,0.23 -2.68,0.69 -0.78,0.46 -1.4,1.11 -1.86,1.96 -0.45,0.85 -0.68,1.84 -0.68,2.97 0,1.12 0.23,2.11 0.68,2.96 0.45,0.85 1.07,1.51 1.87,1.97 0.79,0.46 1.68,0.69 2.67,0.69zm20.64 1.46l-1.85 0 -7.42 -11.25 0 11.25 -1.85 0 0 -14.15 1.85 0 7.42 11.23 0 -11.23 1.85 0 0 14.15zm4.99 -12.63l0 4.73 5.15 0 0 1.52 -5.15 0 0 4.87 5.76 0 0 1.52 -7.6 0 0 -14.15 7.6 0 0 1.52 -5.76 0zm10.4 0l0 4.73 5.15 0 0 1.52 -5.15 0 0 4.87 5.76 0 0 1.52 -7.6 0 0 -14.15 7.6 0 0 1.52 -5.76 0zm16 12.63l-3.37 -5.78 -2.23 0 0 5.78 -1.85 0 0 -14.13 4.56 0c1.07,0 1.97,0.18 2.71,0.55 0.74,0.37 1.29,0.86 1.65,1.48 0.37,0.62 0.55,1.33 0.55,2.13 0,0.97 -0.28,1.83 -0.84,2.58 -0.56,0.74 -1.4,1.24 -2.52,1.48l3.55 5.92 -2.21 0zm-5.6 -7.26l2.72 0c1,0 1.75,-0.25 2.25,-0.74 0.5,-0.49 0.75,-1.15 0.75,-1.98 0,-0.84 -0.25,-1.49 -0.74,-1.95 -0.49,-0.46 -1.25,-0.69 -2.26,-0.69l-2.72 0 0 5.35zm12.33 -6.87l0 14.13 -1.85 0 0 -14.13 1.85 0zm14.26 14.13l-1.85 0 -7.42 -11.25 0 11.25 -1.85 0 0 -14.15 1.85 0 7.42 11.23 0 -11.23 1.85 0 0 14.15zm13.85 -10.04c-0.39,-0.82 -0.96,-1.46 -1.7,-1.92 -0.74,-0.45 -1.61,-0.68 -2.6,-0.68 -0.99,0 -1.88,0.23 -2.67,0.68 -0.79,0.45 -1.41,1.1 -1.87,1.95 -0.45,0.85 -0.68,1.82 -0.68,2.93 0,1.11 0.23,2.08 0.68,2.92 0.45,0.84 1.07,1.48 1.87,1.94 0.79,0.45 1.68,0.68 2.67,0.68 1.38,0 2.51,-0.41 3.41,-1.24 0.89,-0.82 1.41,-1.94 1.56,-3.35l-5.64 0 0 -1.5 7.6 0 0 1.42c-0.11,1.16 -0.47,2.23 -1.1,3.19 -0.62,0.97 -1.44,1.73 -2.45,2.29 -1.01,0.56 -2.14,0.84 -3.39,0.84 -1.31,0 -2.51,-0.31 -3.59,-0.92 -1.08,-0.62 -1.94,-1.47 -2.57,-2.57 -0.63,-1.09 -0.94,-2.33 -0.94,-3.71 0,-1.38 0.31,-2.62 0.94,-3.72 0.63,-1.1 1.48,-1.96 2.57,-2.58 1.08,-0.62 2.28,-0.92 3.59,-0.92 1.5,0 2.83,0.37 3.98,1.12 1.16,0.74 2,1.79 2.53,3.14l-2.21 0z"/>
 </g>
</svg>
