<?xml version="1.0" encoding="UTF-8"?>
<!DOCTYPE svg PUBLIC "-//W3C//DTD SVG 1.1//EN" "http://www.w3.org/Graphics/SVG/1.1/DTD/svg11.dtd">
<!-- Creator: CorelDRAW X8 -->
<svg xmlns="http://www.w3.org/2000/svg" xml:space="preserve" width="901px" height="901px" version="1.1" style="shape-rendering:geometricPrecision; text-rendering:geometricPrecision; image-rendering:optimizeQuality; fill-rule:evenodd; clip-rule:evenodd"
viewBox="0 0 344 344"
 xmlns:xlink="http://www.w3.org/1999/xlink">
 <defs>
  <style type="text/css">
   <![CDATA[
    .str0 {stroke:#F27B13;stroke-width:1.52753}
    .fil0 {fill:none}
    .fil1 {fill:#F27B13}
   ]]>
  </style>
 </defs>
 <g id="Layer_x0020_1">
  <metadata id="CorelCorpID_0Corel-Layer"/>
  <circle class="fil0" cx="172" cy="172" r="172"/>
  <g id="_1192584016656">
   <path class="fil1 str0" d="M87 78l-13 1c-4,1 -2,6 -2,12 -12,1 -16,-1 -16,5 0,17 -1,152 1,156 4,2 10,1 14,1 1,4 0,9 2,12 1,1 11,1 14,1 1,12 -2,16 6,16l160 0c6,0 4,-2 4,-15 0,-6 0,-13 1,-19 11,17 33,6 30,-10 -1,-4 -16,-37 -18,-40l-6 1 -2 -7c6,-3 13,-10 16,-16 9,-15 8,-34 -2,-48 -5,-7 -10,-10 -18,-14l-1 -41c1,-7 2,-10 -4,-10l-161 0c-7,0 -4,4 -5,15zm166 117l2 7 4 -1 -2 -7 -4 1zm-2 14c1,5 10,36 13,40 2,2 8,4 13,2 3,-2 7,-6 6,-11 0,-4 -15,-35 -16,-37l-16 6zm-190 39l3 0 5 0 3 0 0 -152 -11 0 0 152zm15 13c4,0 8,1 11,0l1 -178c-4,-1 -8,0 -12,0l0 178zm162 -145c-21,2 -37,19 -34,42 2,20 20,37 43,33 19,-2 35,-19 32,-42 -2,-19 -19,-36 -41,-33zm-146 161l161 0c0,-13 0,-26 0,-39 0,-14 -7,-24 -7,-32l4 -2 -2 -8c-17,1 -27,-3 -36,-11 -19,-19 -17,-49 3,-65 11,-8 22,-10 38,-8l0 -45 -160 0 -1 210z"/>
   <path class="fil1 str0" d="M236 124c-15,3 -28,17 -24,36 3,15 17,28 36,24 15,-3 28,-18 24,-36 -3,-15 -17,-28 -36,-24zm3 4c-36,6 -26,56 6,52 13,-2 25,-14 23,-30 -2,-12 -14,-25 -29,-22z"/>
   <path class="fil1 str0" d="M143 103l-11 7c-4,-1 -8,-6 -15,-1 -11,7 -2,24 11,19 5,-2 6,-6 6,-13l12 -8c7,2 3,3 13,2 1,3 6,9 6,11 -1,7 -3,9 2,14 4,3 10,4 14,1 4,-3 4,-7 4,-14l23 -14c5,2 9,5 15,0 4,-3 6,-9 3,-14 -3,-5 -9,-8 -15,-5 -6,3 -6,7 -6,15l-22 15c-7,-3 -5,-5 -14,-2 -2,-3 -7,-8 -6,-11 8,-23 -24,-22 -20,-2zm70 -10c-6,3 -3,14 5,11 8,-3 3,-15 -5,-11zm-92 19c-7,3 -4,15 5,12 6,-3 4,-14 -5,-12zm31 -19c-3,1 -5,3 -4,8 1,3 4,5 8,4 7,-3 4,-15 -4,-12zm21 27c-3,1 -6,3 -4,8 1,3 4,5 8,4 6,-3 3,-15 -4,-12z"/>
   <path class="fil1 str0" d="M209 206c0,11 -1,47 0,56 7,1 15,1 22,0 1,-5 1,-53 0,-60 -7,-1 -10,-1 -17,0 -4,0 -5,0 -5,4zm5 51l3 0 6 0 4 0 0 -3 0 -44 0 -4 -13 0 0 51z"/>
   <path class="fil1 str0" d="M145 217c0,11 0,34 0,44 7,1 11,1 18,1 4,0 5,-1 5,-5l0 -40c0,-7 -2,-5 -18,-5 -5,0 -5,1 -5,5zm5 0c0,1 0,-1 0,2 0,0 0,1 0,2l0 36c3,1 9,1 13,0 1,-4 1,-36 0,-40l-10 -1c0,0 -1,1 -1,1 -2,0 -1,0 -2,0z"/>
   <path class="fil1 str0" d="M114 229c0,9 -1,25 0,33 7,1 15,1 22,0 1,-8 0,-24 0,-33 0,-6 0,-4 -17,-4 -5,0 -5,0 -5,4zm5 28l12 0 1 -28 -13 0 0 28z"/>
   <path class="fil1 str0" d="M178 262c3,1 18,1 21,0 1,-8 1,-19 1,-27 0,-6 -4,-4 -19,-4 -4,0 -4,1 -4,4 0,5 0,24 1,27zm4 -5l13 0 0 -21 -13 0 0 21z"/>
   <path class="fil1 str0" d="M113 187c1,1 1,2 4,2l37 0c4,0 4,0 5,-4 -2,-1 -2,-1 -5,-1l-37 0c-3,0 -4,0 -4,3z"/>
   <path class="fil1 str0" d="M117 166l36 0c3,0 4,0 4,-4 -4,-2 -34,-1 -40,-1 -6,0 -6,5 0,5z"/>
   <path class="fil1 str0" d="M145 154c2,1 1,1 5,1 5,0 24,1 27,-1 0,-4 0,-4 -4,-4l-23 0c-4,0 -5,1 -5,4z"/>
   <path class="fil1 str0" d="M118 200c5,0 22,0 26,-1 -1,-4 -1,-4 -5,-4l-22 0c-6,0 -6,5 1,5z"/>
   <path class="fil1 str0" d="M169 166l21 0c4,0 5,0 4,-3 -3,-2 -19,-2 -25,-2 -6,0 -7,5 0,5z"/>
   <path class="fil1 str0" d="M166 188c4,2 22,1 28,0l0 -4c-8,-1 -15,0 -23,0 -4,0 -5,0 -5,4z"/>
   <path class="fil1 str0" d="M147 177c7,1 21,1 28,0 0,-3 -1,-4 -4,-4l-20 0c-4,0 -5,0 -4,4z"/>
   <path class="fil1 str0" d="M113 177c4,1 10,0 15,0 5,0 12,2 12,-3 -4,-2 -11,-1 -15,-1 -6,0 -13,-2 -12,4z"/>
   <path class="fil1 str0" d="M137 155l1 -4c-5,-1 -16,-1 -21,-1 -5,0 -8,5 3,5 5,0 14,1 17,0z"/>
   <polygon class="fil1 str0" points="253,195 255,202 259,201 257,194 "/>
  </g>
 </g>
</svg>
