<?xml version="1.0" encoding="UTF-8"?>
<!DOCTYPE svg PUBLIC "-//W3C//DTD SVG 1.1//EN" "http://www.w3.org/Graphics/SVG/1.1/DTD/svg11.dtd">
<!-- Creator: CorelDRAW X8 -->
<svg xmlns="http://www.w3.org/2000/svg" xml:space="preserve" width="901px" height="901px" version="1.1" style="shape-rendering:geometricPrecision; text-rendering:geometricPrecision; image-rendering:optimizeQuality; fill-rule:evenodd; clip-rule:evenodd"
viewBox="0 0 43646 43646"
 xmlns:xlink="http://www.w3.org/1999/xlink">
 <defs>
  <style type="text/css">
   <![CDATA[
    .fil0 {fill:none}
    .fil1 {fill:#F27B13}
   ]]>
  </style>
 </defs>
 <g id="Layer_x0020_1">
  <metadata id="CorelCorpID_0Corel-Layer"/>
  <g id="_1192584035248">
   <circle class="fil0" cx="21823" cy="21823" r="21823"/>
   <path class="fil1" d="M18250 10784c-1834,481 -1181,1212 -2511,-121 -410,-410 -1683,-1824 -2165,-1992 -323,-19 -4889,4545 -4870,4870 165,472 1541,1709 1942,2113 1300,1309 770,655 169,2563 -4913,231 -4274,-1169 -4274,3479 0,4650 -550,3509 3077,3685 -376,342 -999,457 -1044,1201 -68,1132 -61,1326 1023,1333 6,1044 -81,2347 -615,3254 -329,558 -334,125 -804,516 -227,495 10,942 -255,1486 -253,519 -539,406 -878,852 -423,556 -778,2028 -396,2861 567,468 3559,204 4479,204 2008,0 13767,120 14066,-110 478,-578 174,-3247 217,-4165 1836,-576 1279,-1121 2512,119 399,402 1697,1830 2164,1993 328,18 4888,-4543 4870,-4871 -164,-472 -1540,-1712 -1941,-2113 -1302,-1302 -768,-662 -170,-2562 4912,-232 4274,1167 4274,-3479 0,-769 142,-2919 -109,-3466 -572,-476 -3251,-174 -4165,-217 -578,-1835 -1123,-1271 119,-2511 406,-405 1826,-1690 1992,-2165 -110,-491 -1914,-2125 -2329,-2540 -421,-421 -2041,-2217 -2541,-2330 -474,164 -1709,1540 -2113,1942 -1307,1302 -655,768 -2563,170 -40,-864 111,-3217 -36,-3850 -138,-596 -917,-427 -1506,-425l-3975 0c-2350,-4 -1435,-185 -1644,4276zm-8650 16109l4074 1c-78,-431 -434,-529 -769,-757 -950,-646 -3131,-201 -3305,756zm1649 -5017c-2043,626 -1048,3455 826,2911 1827,-530 1101,-3501 -826,-2911zm-1250 9600l3277 1c-423,-1548 -610,-1657 -621,-3562l-2012 -1c-34,1912 -226,2014 -644,3562zm22769 -7161l3331 33 2 -5097 -102 -1 -3228 0c267,2289 326,2770 -3,5065zm-4993 7041c604,494 1828,2047 2460,2296l3432 -3468c-235,-621 -1782,-1833 -2278,-2442 -924,1035 -1026,1622 -2602,2847 -349,271 -693,486 -1012,767zm-5 -19059c1236,705 2857,2326 3561,3561 425,-330 2185,-2038 2354,-2465l-3468 -3432c-413,157 -2127,1930 -2447,2336zm-11161 22215l157 1552 7001 4c108,-1264 27,-1233 -670,-1778 -431,-337 -720,-980 -759,-1788l-4585 -1c-51,1065 -483,1718 -1144,2011zm-9047 1555l8151 1c14,-2488 -1409,-1055 -1529,-3566l-5093 -1c-125,2520 -1544,1077 -1529,3566zm9172 -12434l0 5402c0,304 642,2371 1019,2446l4585 0 1 -3379 -4374 -3825c148,-405 380,-491 638,-803 1231,1253 1297,871 4245,871 10,-1152 -21,-866 -1360,-2205 -1430,-1430 -1149,-907 -1196,-2280 -489,185 -731,393 -955,871 -374,801 -379,420 -1175,659 -924,277 -1428,1064 -1428,2243zm2549 -16004c0,4343 438,3609 -1634,4482 -590,249 -1193,682 -1724,201 -557,-506 -1893,-2130 -2498,-2369l-3433 3469c216,569 1786,1904 2298,2430 547,560 170,1022 -118,1702 -939,2212 -150,1681 -4612,1707l-2 5094 1728 -3c-665,-2090 905,-4019 2978,-3484 1885,487 2601,2856 1121,4294 675,909 1308,171 1308,1946 0,853 -240,812 -1017,817 -23,3878 1285,3596 1418,3770 431,942 -227,1677 924,2046 1815,-1235 -305,-2936 -305,-4594l0 -5504c0,-3219 2351,-2918 2833,-3587 261,-365 254,-451 608,-719 427,-324 1297,-782 1961,-478 407,491 97,1013 219,1616 69,341 627,780 888,1041 1748,1749 1645,1223 1645,3044 0,1250 -736,693 -3058,833 278,327 1233,1195 1631,1446 3292,-213 5723,-4173 3788,-7595 -1476,-2611 -5049,-3374 -7512,-1467 -319,247 -545,563 -888,752l-678 -566c242,-573 1271,-1306 2022,-1664 5164,-2465 10516,2863 8229,8023 -650,1466 -2212,3051 -4064,3385l24 4179c4866,-709 9077,-5180 8625,-10877 -421,-5290 -4640,-9234 -10156,-9395l0 -1016 2520 242 29 -3301 -5098 100z"/>
  </g>
 </g>
</svg>
