<?xml version="1.0" encoding="UTF-8"?>
<!DOCTYPE svg PUBLIC "-//W3C//DTD SVG 1.1//EN" "http://www.w3.org/Graphics/SVG/1.1/DTD/svg11.dtd">
<!-- Creator: CorelDRAW X8 -->
<svg xmlns="http://www.w3.org/2000/svg" xml:space="preserve" width="901px" height="901px" version="1.1" style="shape-rendering:geometricPrecision; text-rendering:geometricPrecision; image-rendering:optimizeQuality; fill-rule:evenodd; clip-rule:evenodd"
viewBox="0 0 9246 9246"
 xmlns:xlink="http://www.w3.org/1999/xlink">
 <defs>
  <style type="text/css">
   <![CDATA[
    .str0 {stroke:#F27B13;stroke-width:20.5202}
    .fil0 {fill:none}
    .fil1 {fill:#F27B13}
   ]]>
  </style>
 </defs>
 <g id="Layer_x0020_1">
  <metadata id="CorelCorpID_0Corel-Layer"/>
  <g id="_1228141880128">
   <circle class="fil0" cx="4623" cy="4623" r="4623"/>
   <g>
    <path class="fil1 str0" d="M3996 2735l-539 218c-300,-402 -335,-258 -581,-11 -361,361 -339,261 -10,606 -36,154 -160,305 -203,532 -367,7 -442,-53 -442,177 0,243 -12,412 19,646 118,34 280,19 416,22 27,98 52,179 91,274 41,102 97,169 121,279 -429,298 -207,383 -3,586 459,457 294,182 617,-6 317,167 383,150 519,218 3,338 -51,429 167,429l650 -13c42,-116 26,-280 27,-430l189 -48c12,637 -140,425 209,1179 -465,164 -1151,145 -1647,1 -175,-51 -306,-123 -447,-172 27,-2 531,56 388,-155 -33,-48 -94,-43 -169,-45 -977,-22 -825,-96 -418,697 45,88 71,159 188,110 100,-118 -77,-303 -131,-437 108,20 364,144 516,189 404,119 838,153 1263,108 199,-21 429,-102 595,-113 577,623 1564,711 2209,58 767,-777 398,-1913 -86,-2200 55,-591 236,-814 34,-1687 -80,-350 -238,-694 -428,-990 -63,-98 -112,-229 -264,-173 -49,134 31,179 94,275 176,269 305,561 391,889 112,422 148,1120 -10,1533 -381,-215 -674,-253 -1179,-183l42 -175 417 -9c50,-257 26,-374 24,-657 0,-255 -209,-172 -445,-178 -30,-191 -128,-367 -201,-508 67,-138 234,-168 254,-344 -6,-35 -470,-536 -554,-534 -94,30 -239,197 -292,261 -92,-32 -158,-76 -254,-119 -92,-40 -185,-61 -287,-102 -38,-466 185,-431 -678,-431 -251,0 -153,212 -172,433zm2287 2548c-646,130 -1193,698 -1060,1512 106,640 748,1225 1544,1067 642,-128 1187,-733 1046,-1527 -114,-634 -738,-1211 -1530,-1052zm-1952 -1560c-416,52 -758,404 -691,900 54,395 437,741 915,662 380,-62 726,-430 649,-900 -63,-391 -414,-719 -873,-662zm-895 -537c-119,-75 -160,-180 -275,-237l-308 294c309,421 330,62 85,631 -183,422 27,412 -509,412l-10 441c468,0 375,-30 458,249 27,90 65,184 105,262 55,107 108,130 117,255l-245 267 303 308 271 -248c105,16 290,173 748,286 38,122 25,249 27,402l442 -2c1,-116 -25,-293 27,-370 95,-113 377,-75 475,-213 93,-129 92,-205 280,-407 118,-126 220,-181 397,-289 151,-92 126,-323 221,-486l374 -18 9 -434c-578,-17 -322,43 -514,-403 -46,-107 -160,-268 -169,-361 50,-110 165,-174 236,-275 -37,-79 -221,-264 -302,-303l-268 246c-126,-20 -244,-125 -368,-176 -126,-52 -301,-80 -387,-139l-16 -371 -436 -3c-51,398 130,341 -254,459 -164,51 -400,215 -514,223zm760 355c-472,108 -885,589 -737,1197 110,453 574,875 1186,731 458,-108 893,-582 741,-1196 -114,-465 -579,-872 -1190,-732z"/>
    <path class="fil1 str0" d="M4196 3541c-472,108 -885,589 -737,1197 110,453 574,875 1186,731 458,-108 893,-582 741,-1196 -114,-465 -579,-872 -1190,-732zm135 182c-416,52 -758,404 -691,900 54,395 437,741 915,662 380,-62 726,-430 649,-900 -63,-391 -414,-719 -873,-662z"/>
    <path class="fil1 str0" d="M5839 1624c-769,-304 -1419,-453 -2288,-205 -1803,516 -2812,2468 -2112,4263 40,102 338,802 501,761 186,-47 -20,-266 -86,-375 -1186,-1930 162,-4566 2566,-4566 385,0 989,106 1257,278 -122,14 -269,-9 -364,30 -101,250 317,178 526,183 375,9 460,17 269,-316 -49,-85 -244,-470 -288,-494 -142,-82 -166,92 -115,186 51,98 100,147 134,255z"/>
    <path class="fil1 str0" d="M6155 6922c-39,-100 -104,-198 -163,-300 -63,-110 -111,-284 -247,-193 -94,79 33,218 126,383 278,495 240,474 577,137 102,-101 186,-185 286,-286 78,-78 561,-548 581,-591 37,-83 -2,-163 -98,-150 -59,9 -132,100 -170,138l-572 572c-80,80 -215,248 -320,290z"/>
   </g>
  </g>
 </g>
</svg>
