<?xml version="1.0" encoding="UTF-8"?>
<!DOCTYPE svg PUBLIC "-//W3C//DTD SVG 1.1//EN" "http://www.w3.org/Graphics/SVG/1.1/DTD/svg11.dtd">
<!-- Creator: CorelDRAW X8 -->
<svg xmlns="http://www.w3.org/2000/svg" xml:space="preserve" width="901px" height="901px" version="1.1" style="shape-rendering:geometricPrecision; text-rendering:geometricPrecision; image-rendering:optimizeQuality; fill-rule:evenodd; clip-rule:evenodd"
viewBox="0 0 370 370"
 xmlns:xlink="http://www.w3.org/1999/xlink">
 <defs>
  <style type="text/css">
   <![CDATA[
    .fil1 {fill:none}
    .fil0 {fill:#F27B13}
   ]]>
  </style>
 </defs>
 <g id="Layer_x0020_1">
  <metadata id="CorelCorpID_0Corel-Layer"/>
  <g id="_1192605988208">
   <path class="fil0" d="M142 145c0,43 -4,43 20,43 1,21 2,40 -8,60 -3,5 -8,13 -12,15 -10,5 -8,3 -9,17 -5,2 -11,0 -11,15 0,7 1,19 0,26l-11 0c-2,3 -2,4 -2,7 3,2 3,1 7,1l139 0c6,0 8,-2 6,-7 -3,-1 -8,-1 -12,-1 -2,-13 2,-31 -3,-37 -3,-3 -5,-3 -8,-4 -1,-22 -4,-11 -12,-19 -17,-16 -19,-51 -17,-73 23,0 20,1 20,-43 0,-11 -6,-11 -15,-11 -12,0 -11,7 -11,18l-4 0c-5,-8 6,-18 -16,-18 -12,0 -11,7 -11,18l-4 0c-5,-8 6,-18 -15,-18 -8,0 -11,3 -11,11zm1 126c-2,4 -1,6 -1,9l86 0c1,-3 2,-5 0,-8l-85 -1zm7 -92l70 0 0 -36 -8 0c-1,11 2,18 -11,18 -14,0 -11,-6 -12,-18l-8 0c-1,11 2,18 -11,18 -14,0 -11,-6 -12,-18l-8 0 0 36zm5 84l60 0c-4,-10 -9,-11 -13,-32 -3,-15 -3,-28 -2,-43l-30 0c2,21 2,40 -7,60 -2,6 -6,10 -8,15zm83 26l-106 0c-2,2 -1,-2 -2,3l0 29 110 0 0 -28c0,-5 0,-2 -2,-4z"/>
   <path class="fil0" d="M162 65c-5,1 -10,3 -15,5 -4,2 -9,5 -13,6 -4,-3 -9,-11 -16,-12 -8,0 -14,8 -17,12 -4,3 -12,9 -12,16 0,8 7,12 12,18 -1,3 -5,8 -7,13 -1,4 -3,10 -5,14 -22,1 -24,1 -24,24 0,24 2,22 25,23 2,11 7,19 11,28 -4,4 -13,9 -12,18 0,6 10,14 13,17 15,16 17,12 28,1 6,-6 4,0 11,-3 1,-3 2,-4 -1,-7 -11,-10 -17,10 -23,11 -2,0 -20,-18 -20,-20 3,-6 10,-10 14,-15 -1,-5 -7,-13 -8,-18 -2,-5 -5,-17 -8,-20 -4,-2 -15,0 -21,-1 -1,-5 -3,-27 3,-28 4,-2 12,0 19,-1 3,-5 3,-16 11,-29 4,-7 6,-8 0,-14 -2,-2 -8,-7 -10,-10 2,-4 16,-19 20,-20 4,2 7,6 10,9 9,9 5,3 27,-5 5,-2 13,-3 15,-6 3,-5 0,-15 2,-21 4,-1 23,-2 27,0 4,5 0,15 3,21 4,3 10,4 15,5 22,8 18,15 26,7 3,-4 7,-9 11,-10 4,1 19,16 20,20 -2,5 -10,10 -13,15 0,4 5,13 8,17 2,5 4,16 6,20 6,3 14,0 21,2 2,4 2,23 1,28 -6,1 -16,-1 -21,1 -3,3 -5,14 -7,19 -2,5 -8,14 -9,19 4,6 11,9 14,15 -1,4 -6,7 -9,10 -3,3 -7,8 -11,10 -6,-4 -9,-12 -16,-14 -6,1 -10,4 -8,10 8,3 5,-3 10,3 3,2 6,6 8,7 10,6 17,-3 21,-7 3,-4 13,-11 14,-18 1,-8 -9,-14 -12,-18 4,-7 9,-18 11,-28 22,-1 24,1 24,-22 0,-24 -1,-24 -24,-25 -2,-5 -3,-10 -5,-14 -2,-5 -5,-9 -6,-13 3,-5 11,-10 12,-17 0,-7 -9,-14 -12,-17 -4,-4 -10,-12 -17,-12 -8,1 -12,9 -17,12 -4,-1 -8,-4 -12,-6 -6,-2 -10,-3 -15,-5 -1,-22 0,-24 -24,-24 -23,0 -23,2 -23,24z"/>
   <path class="fil0" d="M148 215c4,-11 -8,-7 -18,-30 -6,-13 -7,-28 -3,-42 18,-56 97,-57 116,0 7,22 0,48 -18,63 -4,3 -5,4 -3,9 4,2 6,0 9,-3 3,-2 5,-4 7,-7 35,-39 10,-113 -53,-113 -51,-1 -82,52 -64,95 3,7 6,13 11,18 5,6 10,12 16,10z"/>
   <path class="fil0" d="M149 309l72 0c7,0 8,-3 6,-8 -14,-1 -61,0 -78,0 -4,0 -7,-1 -7,3 0,5 3,5 7,5z"/>
   <path class="fil0" d="M238 289c2,7 1,24 1,31l-108 0c0,-7 -1,-24 1,-31 -2,2 -1,-2 -2,3l0 29 110 0 0 -28c0,-5 0,-2 -2,-4z"/>
  </g>
  <circle class="fil1" cx="185" cy="185" r="185"/>
 </g>
</svg>
