<?xml version="1.0" encoding="UTF-8"?>
<!DOCTYPE svg PUBLIC "-//W3C//DTD SVG 1.1//EN" "http://www.w3.org/Graphics/SVG/1.1/DTD/svg11.dtd">
<!-- Creator: CorelDRAW X8 -->
<svg xmlns="http://www.w3.org/2000/svg" xml:space="preserve" width="504px" height="505px" version="1.1" style="shape-rendering:geometricPrecision; text-rendering:geometricPrecision; image-rendering:optimizeQuality; fill-rule:evenodd; clip-rule:evenodd"
viewBox="0 0 572 572"
 xmlns:xlink="http://www.w3.org/1999/xlink">
 <defs>
  <style type="text/css">
   <![CDATA[
    .str0 {stroke:#E6E6E6;stroke-width:1.02062}
    .fil1 {fill:#0E8E41}
    .fil0 {fill:#F27B13}
   ]]>
  </style>
 </defs>
 <g id="Layer_x0020_1">
  <metadata id="CorelCorpID_0Corel-Layer"/>
  <g id="_1192584044080">
   <path class="fil0 str0" d="M232 43c-17,1 -53,-2 -65,2 -4,18 8,15 23,15l300 0c44,0 37,2 37,46 0,83 2,177 0,257 -29,0 -118,-4 -138,1 -3,7 -2,8 1,14 26,6 154,-4 163,3 3,4 0,-2 1,4l1 13c-3,12 -31,7 -57,7 -67,0 -383,-3 -399,2 -5,20 16,14 55,14 -2,24 -31,136 -26,147 4,6 56,4 60,1 12,-6 6,-47 17,-50l167 0 7 39c4,19 15,13 52,13 25,0 16,-8 3,-76 -5,-23 -12,-50 -14,-74 39,0 79,0 119,0 24,1 32,-2 33,-26 0,-27 -3,-30 -28,-33 -2,-85 -1,-173 -1,-259 0,-64 -6,-60 -71,-60 -42,0 -90,2 -131,0 -3,-16 3,-31 -10,-39 -8,-5 -81,-5 -89,0 -13,8 -7,23 -10,39zm18 0l73 0c1,-5 1,-12 1,-17 -1,-8 -1,-8 -9,-8l-57 0c-9,0 -12,3 -8,25zm-44 459l162 0c-1,-4 -1,-7 -2,-11 -2,-8 1,-5 -5,-8l-152 0 -3 19zm190 52l32 0 -26 -133 -33 0 27 133zm-250 0l31 0 28 -132 -34 0c-4,22 -9,44 -13,65 -3,15 -13,56 -12,67zm76 -131l-9 43 148 0 -9 -44c-20,-1 -119,-4 -130,1z"/>
   <path class="fil0 str0" d="M30 362c-15,2 -25,3 -28,17 -10,52 27,42 48,42 17,0 35,5 29,-15 -12,-3 -52,3 -59,-3 -3,-4 -3,-19 0,-22 6,-5 329,2 343,-2 7,-2 17,-17 -12,-16l-130 0c-58,0 -117,1 -175,0 -1,-67 0,-136 0,-203 0,-18 -5,-88 5,-97 13,-11 80,4 97,-6 2,-19 -15,-14 -43,-14 -82,0 -75,-5 -75,95 0,74 1,150 0,224z"/>
   <path class="fil1 str0" d="M159 104c-82,20 -52,140 28,121 80,-19 51,-139 -28,-121zm8 16c-62,10 -47,97 11,90 24,-3 43,-24 39,-52 -2,-22 -25,-43 -50,-38z"/>
   <path class="fil0 str0" d="M298 257c-48,12 -30,80 16,69 43,-11 29,-80 -16,-69zm-1 18c-23,12 -5,44 17,33 19,-10 6,-44 -17,-33z"/>
   <path class="fil0 str0" d="M255 223c-20,28 77,21 116,2 40,-19 68,-70 59,-96 -22,-6 -10,11 -25,41 -17,33 -47,48 -84,52 -31,4 -56,-1 -66,1z"/>
   <path class="fil1 str0" d="M160 292c-6,7 -18,11 -13,25 15,4 16,-7 26,-13 6,6 11,17 24,13 5,-14 -6,-16 -12,-25 6,-9 17,-12 12,-25 -12,-6 -16,5 -24,12 -6,-4 -17,-20 -25,-12 -9,8 8,20 12,25z"/>
   <path class="fil1 str0" d="M415 292c-6,9 -18,11 -13,25 14,4 18,-7 25,-13 10,6 10,17 25,13 5,-14 -6,-18 -12,-25 7,-8 18,-13 12,-26 -13,-5 -15,7 -25,13 -4,-4 -16,-20 -24,-12 -8,8 8,19 12,25z"/>
   <path class="fil1 str0" d="M292 164c-4,12 -21,15 -11,28 13,5 15,-8 26,-13 4,6 15,20 23,11 6,-10 -7,-16 -12,-23 4,-8 20,-16 11,-24 -9,-10 -18,7 -25,11 -6,-6 -11,-16 -23,-14 -6,10 -1,15 11,24z"/>
   <path class="fil1 str0" d="M166 171c-9,-5 -13,-17 -24,-11 -7,8 0,14 5,18 21,19 15,20 42,-9 8,-8 22,-14 13,-27 -11,-2 -14,5 -20,11 -5,7 -11,11 -16,18z"/>
  </g>
 </g>
</svg>
