<?xml version="1.0" encoding="UTF-8"?>
<!DOCTYPE svg PUBLIC "-//W3C//DTD SVG 1.1//EN" "http://www.w3.org/Graphics/SVG/1.1/DTD/svg11.dtd">
<!-- Creator: CorelDRAW X8 -->
<svg xmlns="http://www.w3.org/2000/svg" xml:space="preserve" width="479px" height="520px" version="1.1" style="shape-rendering:geometricPrecision; text-rendering:geometricPrecision; image-rendering:optimizeQuality; fill-rule:evenodd; clip-rule:evenodd"
viewBox="0 0 235 255"
 xmlns:xlink="http://www.w3.org/1999/xlink">
 <defs>
  <style type="text/css">
   <![CDATA[
    .fil1 {fill:#0E8E41}
    .fil0 {fill:#F27B13}
   ]]>
  </style>
 </defs>
 <g id="Layer_x0020_1">
  <metadata id="CorelCorpID_0Corel-Layer"/>
  <g id="_1192584017904">
   <path class="fil0" d="M157 94c-15,-4 -23,-3 -38,-4 -1,-6 -5,-11 -6,-16 2,-2 10,-9 11,-12 -1,-4 -13,-16 -17,-17 -3,1 -10,9 -12,11l-16 -6c-1,-5 1,-11 -1,-15 -3,-3 -19,-3 -22,-1 -4,3 -2,11 -2,16 -7,2 -12,5 -17,6 -1,-2 -9,-10 -12,-11 -3,1 -16,13 -16,17 0,3 8,10 11,12 -2,5 -5,10 -7,16 -3,1 -8,0 -11,1 -3,3 -2,19 -1,23 3,2 8,1 12,1l7 17c-3,2 -11,9 -11,12 0,3 13,16 16,16 3,0 11,-8 12,-10 6,1 10,4 17,6 0,5 -1,11 1,15 3,3 11,2 16,2 3,1 2,3 4,6 2,7 6,14 11,20 2,3 7,7 10,9 4,4 7,6 13,8 9,5 21,7 33,6 6,-1 12,-2 17,-4 6,-2 10,-5 14,-7 4,3 34,34 40,40 13,12 30,-5 18,-18l-27 -26c-3,-3 -11,-10 -13,-14 5,-12 14,-21 10,-47 -1,-9 -4,-16 -8,-22 -2,-5 -9,-14 -13,-17 5,-1 9,1 10,-5 0,-5 -1,-11 0,-15 3,-17 17,-30 10,-47 -9,-22 -50,-22 -55,6 -3,15 13,31 12,48zm8 -3c0,5 -1,7 4,8 3,0 9,0 13,0l0 -8 -17 0zm15 115c7,7 15,14 22,22 4,3 7,6 11,10 4,4 8,11 12,8 5,-5 -3,-10 -6,-12l-33 -34c-3,3 -3,3 -6,6zm-117 -123c-27,5 -20,45 7,40 10,-2 19,-12 16,-24 -1,-10 -11,-19 -23,-16zm101 -1l19 0c2,-7 10,-25 11,-30 2,-26 -44,-26 -41,0 0,5 8,23 11,30zm-102 -40c0,24 0,10 -20,22 -9,5 -10,-5 -17,-8 -3,1 -5,3 -6,6 3,6 13,8 8,16 -12,21 1,19 -18,21l0 8c14,0 10,-1 14,11 1,3 2,6 4,9 5,9 -4,10 -8,17 1,3 3,5 6,6 6,-3 9,-13 16,-8 4,2 6,3 10,4 13,5 11,-1 11,19l9 0c-2,-22 1,-20 4,-35 -16,3 -26,-1 -33,-11 -7,-10 -6,-25 2,-34 17,-21 51,-11 51,20 6,-4 6,-5 16,-10 -1,-8 -4,-12 -7,-18 -3,-6 7,-10 10,-15 -2,-3 -4,-5 -7,-6 -6,3 -8,13 -16,8 -21,-12 -21,2 -21,-23l-8 1zm67 57c-30,4 -54,31 -50,65 4,29 31,54 65,50 29,-4 54,-31 49,-65 -3,-29 -30,-54 -64,-50z"/>
   <path class="fil1" d="M130 108c-26,3 -47,26 -43,55 4,25 27,46 56,42 25,-3 46,-26 42,-56 -3,-24 -26,-45 -55,-41zm1 8c-21,3 -39,22 -35,47 3,20 22,38 46,34 21,-3 38,-22 35,-47 -3,-20 -22,-38 -46,-34z"/>
   <path class="fil1" d="M106 153c-7,3 0,19 6,26 13,14 33,12 28,4 -3,-3 -22,0 -27,-19 -2,-4 -1,-14 -7,-11z"/>
   <path class="fil0" d="M213 21c-17,6 -10,13 -5,11 14,-4 12,-13 5,-11z"/>
   <path class="fil0" d="M196 5c-2,1 -4,6 -5,8 -2,5 0,9 5,7 4,-2 10,-20 0,-15z"/>
   <path class="fil0" d="M130 21c-9,5 9,13 12,11 9,-4 -8,-13 -12,-11z"/>
   <path class="fil0" d="M147 5c-5,2 -2,6 0,9 1,3 3,8 8,6 5,-2 -3,-18 -8,-15z"/>
   <path class="fil0" d="M172 1c-5,2 -4,18 3,15 4,-2 4,-19 -3,-15z"/>
  </g>
 </g>
</svg>
