<?xml version="1.0" encoding="UTF-8"?>
<!DOCTYPE svg PUBLIC "-//W3C//DTD SVG 1.1//EN" "http://www.w3.org/Graphics/SVG/1.1/DTD/svg11.dtd">
<!-- Creator: CorelDRAW X8 -->
<svg xmlns="http://www.w3.org/2000/svg" xml:space="preserve" width="455px" height="427px" version="1.1" style="shape-rendering:geometricPrecision; text-rendering:geometricPrecision; image-rendering:optimizeQuality; fill-rule:evenodd; clip-rule:evenodd"
viewBox="0 0 107 100"
 xmlns:xlink="http://www.w3.org/1999/xlink">
 <defs>
  <style type="text/css">
   <![CDATA[
    .str1 {stroke:#0E8E41;stroke-width:0.469668}
    .str0 {stroke:#F27B13;stroke-width:0.469668}
    .fil1 {fill:#0E8E41}
    .fil0 {fill:#F27B13}
   ]]>
  </style>
 </defs>
 <g id="Layer_x0020_1">
  <metadata id="CorelCorpID_0Corel-Layer"/>
  <path class="fil0 str0" d="M80 30c-1,5 0,51 0,61 0,1 0,2 2,2l13 0c2,0 2,-1 2,-2 0,-9 1,-57 0,-61 -4,-1 -13,-1 -17,0zm3 60l12 0c0,0 0,0 0,-1 0,-1 0,-1 0,-2 0,-9 0,-51 0,-55 -2,-1 -11,0 -13,0 0,3 0,46 0,55 0,1 0,2 1,3z"/>
  <path class="fil1 str1" d="M55 51l0 40c0,2 0,2 3,2l13 0c2,0 2,-1 2,-2l0 -40c0,-2 -1,-2 -3,-2l-12 0c-2,0 -3,0 -3,2zm3 39l12 0 0 -38 -12 0 0 38z"/>
  <path class="fil0 str0" d="M30 64l0 27c0,2 1,2 3,2l13 0c2,0 2,0 2,-2l0 -27c0,-2 0,-2 -2,-2l-13 0c-2,0 -3,0 -3,2zm3 26l12 0 0 -25 -12 -1 0 26z"/>
  <path class="fil0 str0" d="M104 97c-11,0 -102,-1 -104,0 -1,3 2,3 5,3l20 0c9,0 18,0 27,0 6,0 52,1 54,0 1,-1 0,-33 0,-37 0,-6 1,-34 0,-37 -3,-1 -2,3 -2,6 0,21 0,45 0,65z"/>
  <path class="fil0 str0" d="M6 92c2,1 15,1 17,0 1,-2 0,-11 0,-14 0,-9 1,-7 -8,-7 -2,0 -6,0 -8,0 -2,0 -1,4 -1,6 0,3 -1,14 0,15zm2 -2l13 0 0 -16 -13 0 0 16z"/>
  <path class="fil1" d="M85 7c-3,0 -6,0 -8,1 -1,3 4,5 5,7 0,3 -2,6 -1,8 2,1 5,-3 8,-3 2,0 5,4 7,3 1,-3 -2,-7 0,-9 3,-3 5,-3 5,-6 -2,-1 -6,-1 -8,-1 -3,-8 -5,-11 -8,0zm-4 3c1,2 2,2 4,4 0,1 -1,3 -1,5 1,-1 4,-2 5,-2 1,0 3,2 4,2 0,-2 -1,-4 0,-5 0,-2 2,-2 3,-4 -7,0 -4,0 -7,-5 -4,4 0,5 -8,5z"/>
  <path class="fil0" d="M69 20c-3,4 -21,15 -26,17 -4,3 -9,5 -14,7 -3,1 -5,2 -8,3 -2,1 -7,1 -6,4 4,1 27,-10 30,-12 7,-3 16,-9 22,-14l2 -2c1,0 0,0 1,0 0,2 -1,6 0,8 3,0 2,-3 3,-5 0,-2 1,-6 0,-7 -1,-1 -9,-2 -11,-2 -2,0 -2,2 1,3 1,0 4,0 6,0z"/>
  <path class="fil0" d="M40 17c-2,0 -11,0 -5,4 1,1 1,1 2,2 0,3 -1,5 0,7 2,1 4,-2 6,-2 2,0 4,4 6,2 2,-1 0,-5 0,-7 1,0 5,-3 4,-5 -1,-1 -5,-1 -7,-1 0,-1 -1,-6 -3,-6 -1,0 -3,4 -3,6zm-2 3c2,3 3,0 2,6 1,0 2,-1 3,-1 1,0 2,1 3,1l0 -4 2 -2 -1 0c-1,0 -2,0 -2,0l-1 -3c-1,-1 0,0 -1,-1 -1,4 -1,3 -5,4z"/>
  <path class="fil0" d="M18 25c-1,0 -4,0 -5,1 -1,2 2,4 4,5 -1,2 -2,4 -1,6 2,1 4,-2 6,-2 2,0 3,3 6,2 0,-1 -1,-4 -1,-6 1,-2 4,-2 4,-5 -1,-1 -4,-1 -6,-1 -1,-1 -2,-5 -3,-5 -2,0 -2,4 -4,5zm-1 3c1,1 2,1 2,2l0 3c4,-1 2,-2 6,0 0,-2 -2,-2 1,-5 -4,-1 -2,0 -4,-3 -2,2 0,2 -5,3z"/>
 </g>
</svg>
