<?xml version="1.0" encoding="UTF-8"?>
<!DOCTYPE svg PUBLIC "-//W3C//DTD SVG 1.1//EN" "http://www.w3.org/Graphics/SVG/1.1/DTD/svg11.dtd">
<!-- Creator: CorelDRAW X8 -->
<svg xmlns="http://www.w3.org/2000/svg" xml:space="preserve" width="394px" height="352px" version="1.1" style="shape-rendering:geometricPrecision; text-rendering:geometricPrecision; image-rendering:optimizeQuality; fill-rule:evenodd; clip-rule:evenodd"
viewBox="0 0 500 447"
 xmlns:xlink="http://www.w3.org/1999/xlink">
 <defs>
  <style type="text/css">
   <![CDATA[
    .fil1 {fill:#0E8E41}
    .fil0 {fill:#F27B13}
   ]]>
  </style>
 </defs>
 <g id="Layer_x0020_1">
  <metadata id="CorelCorpID_0Corel-Layer"/>
  <path class="fil0" d="M230 89c-3,3 0,1 -5,3l-17 5c-9,3 -14,8 -18,13 -11,15 -8,30 -15,46 -9,4 -26,-5 -26,25 0,26 11,21 27,24 0,11 -2,33 2,42 18,5 12,-14 13,-43 15,0 31,0 47,0 16,0 36,5 32,-12 -17,-6 -81,1 -106,-2 0,-3 0,-6 0,-9 0,-1 0,-4 0,-4l1 -4c0,-1 0,-1 0,-1l143 -1c10,0 11,3 15,8 5,4 11,6 13,11 -11,1 -28,-1 -38,0 -5,1 -9,6 -5,11 3,4 11,3 17,3l0 102c-11,5 -14,2 -28,-7 4,-14 11,-27 3,-45 -12,-29 -57,-29 -69,0 -4,7 -4,15 -3,23 0,10 4,16 6,22 -5,3 -8,4 -13,8 -4,3 -8,2 -15,-1 -2,-24 6,-43 -13,-38 -5,11 -1,28 -2,40 -4,-3 -10,-5 -16,-9 5,-13 10,-29 3,-46 -13,-28 -57,-28 -69,1 -8,17 -2,32 3,46 -6,2 -7,3 -12,6 -7,5 -4,2 -13,1 -13,-1 -24,4 -30,10 -13,10 -18,42 -5,56 -15,14 -23,-2 -33,43 -1,7 -7,26 -1,29 17,12 12,-36 23,-49 5,-6 19,-12 28,-10 21,6 24,-2 34,0 40,6 24,50 36,59 5,4 10,1 12,-4 7,-22 0,-44 24,-53 19,-6 15,2 32,1 10,-1 13,-7 32,1 17,8 14,39 21,56l11 0c6,-16 4,-47 19,-55 3,-1 11,-4 14,-5 9,-2 8,1 16,2 18,3 16,-6 35,0 33,11 13,66 35,58 8,-3 7,-29 13,-45 3,-9 12,-13 23,-15 10,-2 15,6 34,1 9,-3 22,1 28,7 13,12 6,56 23,52 12,-3 -4,-51 -8,-57 -9,-12 -17,-10 -24,-16 15,-17 9,-69 -33,-66 -9,1 -9,4 -15,0 -5,-4 -6,-5 -13,-7 5,-14 11,-29 4,-46 -13,-29 -57,-29 -69,-1 -8,17 -2,33 3,46 -6,4 -13,6 -16,9l0 -103c17,-4 15,2 26,-11 20,2 28,5 49,-2 63,-24 48,-102 29,-99 -16,3 14,27 -5,60 -32,58 -124,24 -109,-37 2,-6 5,-11 6,-16 1,-6 0,-13 1,-19 8,-1 17,1 25,-2 51,-16 48,10 66,1 2,-11 -9,-15 -24,-18 -31,-7 -39,5 -56,5 -6,0 -15,-1 -20,1 -11,5 -4,22 -8,34l-26 -9c-6,-2 -5,-1 -8,-4 1,-6 -2,-1 3,-5 15,-13 21,-19 18,-49 -5,-47 -78,-47 -83,1 -2,16 -1,31 11,43 2,2 3,2 5,4 5,4 4,0 5,6zm40 68l35 0c-2,-8 -5,-14 -6,-24 -1,-14 3,-16 -9,-22l-20 46zm-79 0l39 0 -19 -46c-15,7 -19,31 -20,46zm36 -51c-3,5 12,34 14,40 11,27 17,2 24,-13l9 -25c0,0 0,-1 0,-1 0,0 0,-1 0,-1 -9,-3 -6,12 -24,12 -17,0 -15,-15 -23,-12zm122 165l0 5c0,33 46,32 46,0l0 -5c0,-34 -46,-34 -46,0zm-243 0l0 5c0,32 46,33 46,0l0 -6c0,-32 -46,-34 -46,1zm321 51c-28,6 -22,62 12,52 27,-7 23,-60 -12,-52zm-365 0c-29,6 -22,61 12,52 27,-7 22,-60 -12,-52zm180 -75c-27,10 -16,65 17,52 26,-11 17,-64 -17,-52zm63 75c-28,7 -21,60 12,53 28,-7 23,-62 -12,-53zm-122 0c-15,4 -19,16 -16,34 2,13 15,23 30,18 26,-9 19,-62 -14,-52zm63 -308c-20,4 -24,15 -23,37 1,16 14,29 33,26 35,-7 27,-71 -10,-63zm-30 303c6,9 10,10 11,26 1,19 -1,18 -7,32 9,2 13,4 19,9 8,7 6,8 11,15 6,-7 3,-8 11,-15 6,-5 10,-7 19,-9 -5,-14 -7,-12 -6,-31 0,-17 4,-17 11,-27 -19,-12 -17,-3 -35,-3 -17,0 -16,-9 -34,3zm122 0c2,5 22,22 4,57 5,3 11,3 19,9 7,6 6,9 11,17 13,-25 20,-18 30,-27 -7,-8 -7,-17 -7,-29 1,-16 5,-17 11,-27 -14,-12 -21,-3 -35,-3 -14,0 -18,-9 -33,3zm-243 0c5,9 10,11 10,26 1,12 1,22 -7,30 5,4 14,6 19,10 5,4 8,9 11,17 13,-22 8,-15 27,-25 4,-2 1,0 3,-1 -6,-13 -10,-31 -3,-45 2,-6 6,-8 7,-12 -14,-12 -19,-3 -32,-3 -15,0 -21,-9 -35,3z"/>
  <path class="fil1" d="M337 103c-3,8 2,2 2,25 -6,5 -9,3 -6,14 7,2 27,4 28,-5 0,-6 -6,-6 -7,-10l0 -13 13 0 0 35c-10,0 -17,1 -14,11 9,5 31,3 42,2 5,-10 0,-12 -13,-13l0 -35 13 0 0 13c-1,5 -8,2 -7,10 1,10 20,6 27,5 1,-3 2,-5 1,-9 -3,-7 -6,4 -6,-15 0,-10 5,-9 0,-17 -8,-2 -14,0 -22,-1 -12,0 -5,-8 -15,-6 -10,1 1,6 -14,6 -7,0 -16,-2 -22,3z"/>
 </g>
</svg>
