<?xml version="1.0" encoding="UTF-8"?>
<!DOCTYPE svg PUBLIC "-//W3C//DTD SVG 1.1//EN" "http://www.w3.org/Graphics/SVG/1.1/DTD/svg11.dtd">
<!-- Creator: CorelDRAW X8 -->
<svg xmlns="http://www.w3.org/2000/svg" xml:space="preserve" width="333px" height="377px" version="1.1" style="shape-rendering:geometricPrecision; text-rendering:geometricPrecision; image-rendering:optimizeQuality; fill-rule:evenodd; clip-rule:evenodd"
viewBox="0 0 126 143"
 xmlns:xlink="http://www.w3.org/1999/xlink">
 <defs>
  <style type="text/css">
   <![CDATA[
    .fil1 {fill:#0E8E41}
    .fil0 {fill:#F27B13}
   ]]>
  </style>
 </defs>
 <g id="Layer_x0020_1">
  <metadata id="CorelCorpID_0Corel-Layer"/>
  <path class="fil0" d="M10 67c2,0 7,-1 10,0 0,6 0,33 0,43 0,2 0,13 -1,14 -11,0 -9,-2 -9,14l-10 0 0 5 126 0 0 -5 -10 0c0,-3 1,-11 0,-12 -1,-4 -7,-2 -10,-3l0 -56c4,0 9,1 12,0 2,-3 1,-10 1,-14 0,-10 -7,-3 -10,-6 0,-1 -4,-14 -11,-22 1,-12 -11,-13 -15,-8 -5,7 1,17 11,13 3,3 8,12 9,18l-22 0c0,-10 -4,-18 -11,-22 -1,-1 -2,-1 -3,-2 3,-4 6,-8 3,-15 -2,-5 -6,-9 -13,-9 -10,0 -16,9 -13,18 1,3 2,4 4,7 -4,1 -9,5 -11,8 -2,4 -4,8 -4,14 -6,2 -17,0 -23,1 -4,0 -3,6 -3,9 0,6 -1,10 3,10zm77 -43c1,1 2,2 4,1 1,-1 2,-2 1,-4 -1,-2 -6,-3 -5,3zm-32 -18c-11,4 -5,19 5,16 10,-3 5,-20 -5,-16zm-16 42l36 0c0,-27 -36,-26 -36,0zm-24 90l96 0 0 -9 -1 0 -97 0 2 0 0 9zm-2 -76l99 0 2 0 0 -9 0 0 -101 0 0 9zm12 62l76 0 0 -57 -76 0 0 57z"/>
  <path class="fil0" d="M31 80l0 31c0,3 1,4 4,4l56 0c3,0 4,-1 4,-4l0 -31c0,-4 -1,-4 -4,-4l1 0c-19,0 -38,0 -58,0 -3,0 -3,1 -3,4zm5 29l53 0 0 -28 -53 0 0 28zm6 -17l42 1 0 -6 -42 0 0 5zm42 11l0 -5 -42 0 0 5 42 0z"/>
  <polygon class="fil1" points="42,92 84,93 84,87 42,87 "/>
  <polygon class="fil1" points="84,103 84,98 42,98 42,103 "/>
  <path class="fil1" d="M84 103l-42 0 0 -5 42 0c-2,-1 -19,0 -21,0 -5,0 -17,-1 -21,0l0 6c2,0 32,0 39,0l3 -1z"/>
 </g>
</svg>
