<?xml version="1.0" encoding="UTF-8"?>
<!DOCTYPE svg PUBLIC "-//W3C//DTD SVG 1.1//EN" "http://www.w3.org/Graphics/SVG/1.1/DTD/svg11.dtd">
<!-- Creator: CorelDRAW X8 -->
<svg xmlns="http://www.w3.org/2000/svg" xml:space="preserve" width="348px" height="343px" version="1.1" style="shape-rendering:geometricPrecision; text-rendering:geometricPrecision; image-rendering:optimizeQuality; fill-rule:evenodd; clip-rule:evenodd"
viewBox="0 0 126 124"
 xmlns:xlink="http://www.w3.org/1999/xlink">
 <defs>
  <style type="text/css">
   <![CDATA[
    .str1 {stroke:#0E8E41;stroke-width:0.7227}
    .str0 {stroke:#F27B13;stroke-width:0.7227}
    .fil1 {fill:#0E8E41}
    .fil0 {fill:#F27B13}
   ]]>
  </style>
 </defs>
 <g id="Layer_x0020_1">
  <metadata id="CorelCorpID_0Corel-Layer"/>
  <path class="fil0 str0" d="M20 93c1,-2 1,-6 2,-9 0,-1 0,-2 1,-4 0,-2 0,-3 1,-4 3,9 4,7 14,7 4,0 7,1 10,-1 2,-1 4,-5 2,-8 -2,-4 -7,-4 -12,-4 -2,-1 -2,-1 -3,-3 -2,-3 -7,-11 -9,-13 -6,-4 -12,-2 -15,3 -2,3 -5,11 -7,16 -1,4 -4,12 -4,18 1,3 6,2 9,2 3,0 9,1 11,0zm-15 -4l12 0c0,-3 1,-8 2,-11 0,-3 1,-9 3,-11 2,-1 3,3 4,5 1,2 3,5 4,7 3,0 21,2 16,-4 -1,-1 -4,-1 -6,-1 -8,-1 -6,1 -15,-14 -2,-4 -5,-5 -9,-3 -2,2 -4,7 -5,10 -3,7 -6,13 -6,22z"/>
  <path class="fil0 str0" d="M102 76c2,2 2,15 4,17 2,1 8,0 10,0 3,0 9,1 9,-2 1,-7 -7,-28 -10,-34 -3,-4 -9,-7 -15,-3 -2,2 -7,10 -9,13 -1,3 -2,2 -8,3 -12,2 -8,10 -6,12 3,2 6,1 10,1 11,0 11,2 15,-7zm-6 3c1,-2 2,-5 3,-7 1,-2 2,-6 5,-5 2,2 2,8 3,11 0,3 1,8 2,11l12 0c0,-8 -3,-15 -6,-22 -2,-5 -4,-13 -11,-11 -3,1 -7,9 -9,13 -3,5 -2,4 -9,5 -2,0 -5,0 -6,1 -2,1 -1,4 1,4 4,1 11,0 15,0z"/>
  <path class="fil0 str0" d="M6 55l4 0 0 -50 105 0 0 50 4 0c1,-8 0,-31 0,-42 0,-2 0,-4 0,-6 0,-2 1,-6 -1,-6 -1,-1 -109,-1 -110,0 -2,0 -2,8 -2,12l0 42z"/>
  <path class="fil0 str0" d="M61 75c-16,3 -13,29 4,26 7,-1 11,-7 10,-15 -1,-6 -6,-12 -14,-11zm0 4c-10,3 -7,21 4,18 10,-2 7,-20 -4,-18z"/>
  <path class="fil0 str0" d="M99 31c-13,2 -9,22 4,20 5,-1 9,-6 8,-12 -1,-5 -6,-9 -12,-8zm1 4c-8,2 -5,13 3,12 7,-2 5,-14 -3,-12z"/>
  <path class="fil0 str0" d="M23 31c-13,2 -10,22 3,20 5,-1 10,-6 8,-12 0,-5 -5,-9 -11,-8zm0 4c-7,2 -5,13 3,12 7,-2 5,-14 -3,-12z"/>
  <path class="fil0 str0" d="M41 123l4 0c0,-5 -2,-12 2,-14 3,-2 12,-2 16,-2 19,0 18,-1 18,16l4 0c0,-7 1,-13 -4,-17 -4,-4 -12,-3 -18,-3 -6,0 -14,-1 -19,3 -4,4 -3,10 -3,17z"/>
  <path class="fil0 str0" d="M35 60l3 2c1,-2 2,-5 3,-5l44 0c1,0 1,0 2,3 0,1 1,3 1,4l4 -2c0,-2 -2,-4 -2,-6 -2,-4 -3,-3 -7,-3l-37 0c-2,0 -7,-1 -9,1 0,0 -2,5 -2,6z"/>
  <path class="fil0 str0" d="M97 86c2,9 6,10 6,21l-16 0 0 4c23,1 20,2 20,-8 0,-3 -5,-16 -6,-18l-4 1z"/>
  <path class="fil0 str0" d="M39 111l0 -4 -16 0c0,-6 0,-6 2,-11 1,-3 3,-8 4,-10l-4 -1c-1,2 -3,6 -4,9 -1,4 -2,5 -2,11 0,8 -3,6 20,6z"/>
  <g id="_1192613952976">
   <path class="fil1 str1" d="M81 15l7 0c-1,1 -20,20 -21,21 -3,-2 -9,-11 -12,-11 -2,0 -7,5 -8,7 -2,1 -7,6 -8,8 2,0 2,1 3,2 3,-1 10,-11 13,-12 3,2 9,10 12,11 2,0 21,-21 24,-23l0 7 4 0c0,-17 2,-14 -14,-14l0 4z"/>
   <polygon class="fil1 str1" points="21,11 21,15 21,15 45,15 45,14 45,11 44,11 21,11 "/>
   <polygon class="fil1 str1" points="21,19 21,23 21,23 35,23 35,22 35,19 34,19 21,19 "/>
  </g>
 </g>
</svg>
