<?xml version="1.0" encoding="utf-8"?>
<!-- Generator: Adobe Illustrator 27.3.1, SVG Export Plug-In . SVG Version: 6.00 Build 0)  -->
<svg version="1.1" id="Layer_1" xmlns="http://www.w3.org/2000/svg" xmlns:xlink="http://www.w3.org/1999/xlink" x="0px" y="0px"
	 viewBox="0 0 1080 1920" style="enable-background:new 0 0 1080 1920;" xml:space="preserve">
<style type="text/css">
	.st0{fill:#FFFFFF;}
	.st1{fill-rule:evenodd;clip-rule:evenodd;fill:#FFFFFF;}
	.st2{fill-rule:evenodd;clip-rule:evenodd;fill:#7B933B;}
	.st3{fill-rule:evenodd;clip-rule:evenodd;fill:#026735;}
	.st4{fill-rule:evenodd;clip-rule:evenodd;fill:#6E8237;}
	.st5{fill-rule:evenodd;clip-rule:evenodd;fill:#941B1F;}
	.st6{fill-rule:evenodd;clip-rule:evenodd;fill:#E93939;}
	.st7{fill-rule:evenodd;clip-rule:evenodd;fill:#E42628;}
	.st8{fill-rule:evenodd;clip-rule:evenodd;fill:#B72327;}
	.st9{fill-rule:evenodd;clip-rule:evenodd;fill:#D62028;}
	.st10{fill-rule:evenodd;clip-rule:evenodd;fill:#731213;}
</style>
<g>
	<path class="st0" d="M223.55,1397.05c6.12,6.89,27.71,30.99,49.87,54.91c20.25,21.81,47.77,49.93,49.87,51.85
		c10.14,10.14,12.47,12.24,14,12.24c1.34,0,1.72-0.96,1.72-13.58l0.38-112.11c0-11.48,0.77-15.69,7.08-17.03
		c2.3-0.57,3.64-0.57,4.59-0.57c1.34,0,2.11-0.57,2.11-1.34c0-1.15-1.34-1.34-3.44-1.34c-7.84,0-14.16,0.57-16.29,0.57
		c-2.11,0-11.29-0.57-19.87-0.57c-2.3,0-3.83,0.19-3.83,1.34c0,0.77,0.19,1.34,1.53,1.34c1.53,0,5.9,0.19,9.34,0.96
		c5.93,1.53,7.27,5.74,7.46,18.17l2.1,97.19c-6.12-6.31-26.94-29.65-45.85-49.93c-29.43-31.57-57.9-62.37-60.77-65.62
		c-1.91-1.91-5.2-6.12-6.73-6.12c-1.53,0-2.1,2.11-2.1,9.57l-0.19,109.62c0,17.41-0.96,22.96-5.74,24.3
		c-2.87,0.96-6.31,1.15-7.84,1.15c-0.96,0-1.53,0.38-1.53,1.15c0,1.34,1.15,1.53,3.06,1.53c8.61,0,16.64-0.57,18.4-0.57
		c1.72,0,9.37,0.57,20.25,0.57c2.3,0,3.44-0.38,3.44-1.53c0-0.77-0.57-1.15-1.53-1.15c-1.72,0-5.9-0.19-9.53-1.15
		c-5.17-1.53-7.08-6.51-7.46-22.19L223.55,1397.05L223.55,1397.05z M390.23,1459.23c0,18.37,0,33.48-0.96,41.52
		c-0.77,5.55-1.72,9.76-5.55,10.52c-1.72,0.38-4.02,0.77-5.74,0.77c-1.15,0-1.53,0.57-1.53,1.15c0,1.15,0.96,1.53,3.06,1.53
		c2.87,0,7.27-0.38,11.1-0.38c4.02-0.19,7.27-0.19,7.65-0.19c2.87,0,7.46,0.19,14.92,0.57c7.46,0.19,17.98,0.57,32.33,0.57
		c7.46,0,8.99,0,10.33-4.97c0.96-4.02,2.49-17.03,2.49-18.56c0-1.34,0-2.87-1.15-2.87c-0.96,0-1.34,0.77-1.72,2.87
		c-1.34,7.84-3.63,11.67-8.61,13.78c-4.98,2.1-13.39,2.1-18.37,2.1c-18.75,0-21.62-2.49-22.19-15.69c-0.19-4.02,0-26.21,0-32.72
		v-16.83c0-0.77,0.38-1.34,1.34-1.34c3.25,0,22.19,0.38,27.36,0.96c7.46,0.76,9.18,4.02,9.95,6.69c0.77,2.49,0.77,4.4,0.77,6.31
		c0,0.96,0.38,1.72,1.34,1.72c1.34,0,1.34-2.1,1.34-3.63c0-1.34,0.38-8.42,0.77-12.25c0.57-6.31,1.53-9.56,1.53-10.71
		c0-1.15-0.38-1.53-0.96-1.53c-0.77,0-1.53,0.96-2.87,2.49c-1.72,1.91-4.4,2.3-8.99,2.68c-4.4,0.38-27.93,0.38-30.42,0.38
		c-0.96,0-1.15-0.57-1.15-1.91v-52.8c0-1.34,0.38-1.91,1.15-1.91c2.1,0,22.96,0.19,26.21,0.57c10.33,1.15,12.25,3.44,13.58,6.5
		c0.96,2.3,1.15,5.55,1.15,6.89c0,1.53,0.38,2.49,1.53,2.49c0.76,0,1.15-1.15,1.34-2.1c0.38-2.3,0.77-10.71,0.96-12.63
		c0.57-5.36,1.53-7.65,1.53-8.99c0-0.96-0.19-1.72-0.76-1.72c-0.96,0-1.72,0.77-2.68,0.96c-1.53,0.38-4.59,0.76-8.23,0.96
		c-4.4,0.19-42.47,0.19-43.81,0.19l-7.84-0.38c-4.21-0.19-9.37-0.19-13.78-0.19c-2.1,0-3.06,0.38-3.06,1.53
		c0,0.77,0.77,1.15,1.53,1.15c1.72,0,4.97,0.19,6.5,0.57c6.31,1.34,7.84,4.4,8.23,10.91c0.38,6.12,0.38,11.48,0.38,41.32V1459.23
		L390.23,1459.23z M610.74,1425.56c0-29.84,0-35.2,0.38-41.32c0.38-6.7,1.91-9.95,7.08-10.91c2.3-0.38,3.44-0.57,4.78-0.57
		c0.77,0,1.53-0.38,1.53-1.15c0-1.15-0.96-1.53-3.06-1.53c-5.74,0-17.79,0.57-18.75,0.57c-0.96,0-13.01-0.57-21.62-0.57
		c-2.1,0-3.06,0.38-3.06,1.53c0,0.77,0.77,1.15,1.53,1.15c1.72,0,4.97,0.19,6.5,0.57c6.31,1.34,7.84,4.4,8.23,10.91
		c0.38,6.12,0.38,11.48,0.38,41.32v4.02c0,0.96-0.57,1.15-1.15,1.15H512.4c-0.57,0-1.15-0.19-1.15-1.15v-4.02
		c0-29.84,0-35.2,0.38-41.32c0.38-6.7,1.91-9.95,7.08-10.91c2.3-0.38,3.44-0.57,4.78-0.57c0.77,0,1.53-0.38,1.53-1.15
		c0-1.15-0.96-1.53-3.06-1.53c-5.74,0-17.79,0.57-18.75,0.57c-0.96,0-13.01-0.57-21.62-0.57c-2.1,0-3.06,0.38-3.06,1.53
		c0,0.77,0.77,1.15,1.53,1.15c1.72,0,4.97,0.19,6.51,0.57c6.31,1.34,7.84,4.4,8.23,10.91c0.38,6.12,0.38,11.48,0.38,41.32v33.67
		c0,18.37,0,33.48-0.96,41.52c-0.77,5.55-1.72,9.76-5.55,10.52c-1.72,0.38-4.02,0.77-5.74,0.77c-1.15,0-1.53,0.57-1.53,1.15
		c0,1.15,0.96,1.53,3.06,1.53c5.74,0,17.79-0.57,18.75-0.57c0.96,0,13.01,0.57,23.53,0.57c2.1,0,3.06-0.57,3.06-1.53
		c0-0.57-0.38-1.15-1.53-1.15c-1.72,0-5.93-0.38-8.61-0.77c-5.74-0.77-6.89-4.97-7.46-10.52c-0.96-8.04-0.96-23.15-0.96-41.52
		v-20.09c0-0.96,0.57-1.15,1.15-1.15h81.12c0.57,0,1.15,0.38,1.15,1.15v20.09c0,18.37,0,33.48-0.96,41.52
		c-0.77,5.55-1.72,9.76-5.55,10.52c-1.72,0.38-4.02,0.77-5.74,0.77c-1.15,0-1.53,0.57-1.53,1.15c0,1.15,0.96,1.53,3.06,1.53
		c5.74,0,17.79-0.57,18.75-0.57c0.96,0,13.01,0.57,23.53,0.57c2.1,0,3.06-0.57,3.06-1.53c0-0.57-0.38-1.15-1.53-1.15
		c-1.72,0-5.93-0.38-8.61-0.77c-5.74-0.77-6.89-4.97-7.46-10.52c-0.96-8.04-0.96-23.15-0.96-41.52V1425.56L610.74,1425.56z
		 M667.1,1459.23c0,18.37,0,33.48-0.96,41.52c-0.77,5.55-1.72,9.76-5.55,10.52c-1.72,0.38-4.02,0.77-5.74,0.77
		c-1.15,0-1.53,0.57-1.53,1.15c0,1.15,0.96,1.53,3.06,1.53c5.74,0,17.79-0.57,17.98-0.57c0.96,0,13.01,0.57,23.53,0.57
		c2.1,0,3.06-0.57,3.06-1.53c0-0.57-0.38-1.15-1.53-1.15c-1.72,0-5.93-0.38-8.61-0.77c-5.74-0.77-6.89-4.97-7.46-10.52
		c-0.96-8.04-0.96-23.15-0.96-41.52v-4.59c0-0.96,0.38-1.53,1.34-1.53l23.53,0.38c1.15,0,1.72,0.38,2.49,1.15
		c3.83,4.97,12.82,17.79,20.85,28.31c10.91,14.35,17.6,23.72,25.83,28.12c4.98,2.68,9.76,3.64,20.47,3.64h13.58
		c3.44,0,4.59-0.38,4.59-1.53c0-0.57-0.77-1.15-1.72-1.15c-1.15,0-3.83,0-7.46-0.57c-4.78-0.77-13.01-2.87-23.34-13.78
		c-11.1-11.86-24.11-28.89-39.79-48.98c17.22-15.88,23.15-30.04,23.15-44.19c0-13.2-8.42-22.57-13.2-26.02
		c-10.14-7.27-22.96-8.42-35.01-8.42c-5.93,0-20.47,0.57-22.57,0.57c-0.96,0-13.01-0.57-21.62-0.57c-2.1,0-3.06,0.38-3.06,1.53
		c0,0.77,0.77,1.15,1.53,1.15c1.72,0,4.97,0.19,6.51,0.57c6.31,1.34,7.84,4.4,8.23,10.91c0.38,6.12,0.38,11.48,0.38,41.32V1459.23
		L667.1,1459.23z M682.4,1379.64c0-1.15,0.57-1.91,1.53-2.3c1.91-0.57,7.08-1.15,12.82-1.15c20.47,0,33.1,14.35,33.1,38.26
		c0,14.54-4.98,24.87-11.67,29.46c-4.4,3.06-9.76,3.64-14.35,3.64c-8.42,0-17.22-1.34-20.09-3.06c-0.96-0.57-1.34-1.34-1.34-2.3
		V1379.64L682.4,1379.64z M788.5,1453.49c0,27.93,7.27,41.32,16.64,50.32c13.58,12.82,32.91,13.58,39.41,13.58
		c11.29,0,25.64-1.91,39.41-14.16c15.31-13.58,17.6-36.54,17.6-57.2v-20.47c0-29.84,0-35.2,0.38-41.32
		c0.38-6.7,1.91-9.76,7.08-10.91c2.3-0.38,3.44-0.57,4.78-0.57c0.77,0,1.53-0.38,1.53-1.15c0-1.15-0.96-1.53-3.06-1.53
		c-5.74,0-14.73,0.57-16.07,0.57c-1.15,0-11.67-0.57-20.28-0.57c-2.1,0-3.06,0.38-3.06,1.53c0,0.77,0.76,1.15,1.53,1.15
		c1.72,0,4.98,0.19,6.51,0.57c6.31,1.34,7.84,4.4,8.23,10.91c0.38,6.12,0.38,11.48,0.38,41.32v23.92c0,19.7-2.3,35.97-11.1,46.87
		c-6.89,8.23-18.37,13.78-30.04,13.78c-10.9,0-19.51-1.72-28.89-10.52c-8.23-7.84-14.35-19.71-14.35-47.26v-26.79
		c0-29.84,0-35.2,0.38-41.32c0.38-6.7,1.91-10.14,7.08-10.91c2.3-0.38,3.44-0.57,4.78-0.57c0.77,0,1.53-0.38,1.53-1.15
		c0-1.15-0.96-1.53-3.06-1.53c-5.74,0-17.22,0.57-18.94,0.57c-1.72,0-13.39-0.57-22-0.57c-2.1,0-3.06,0.38-3.06,1.53
		c0,0.77,0.77,1.15,1.53,1.15c1.72,0,4.97,0.19,6.5,0.57c6.31,1.34,7.84,4.4,8.23,10.91c0.38,6.12,0.38,11.48,0.38,41.32V1453.49
		L788.5,1453.49z"/>
	<path class="st0" d="M206.63,1596.38c0,11.06,0,20.17-0.58,25.01c-0.46,3.34-1.04,5.88-3.34,6.34c-1.04,0.23-2.42,0.46-3.46,0.46
		c-0.69,0-0.92,0.35-0.92,0.69c0,0.69,0.58,0.92,1.84,0.92c3.46,0,10.72-0.34,11.29-0.34c0.58,0,7.84,0.34,14.17,0.34
		c1.27,0,1.84-0.34,1.84-0.92c0-0.35-0.23-0.69-0.92-0.69c-1.04,0-3.57-0.23-5.18-0.46c-3.46-0.46-4.15-3-4.49-6.34
		c-0.58-4.84-0.58-13.94-0.58-25.01v-9.79c0-0.81,0.23-1.04,0.81-1.04c1.96,0,14.52,0,17.4,0.35c3.57,0.46,5.42,2.54,5.99,4.15
		c0.46,1.38,0.58,3,0.69,4.15c0,0.58,0.23,1.04,0.81,1.04c0.81,0,0.81-1.15,0.81-2.19c0-0.81,0.23-5.42,0.46-7.72
		c0.35-3.8,0.92-5.74,0.92-6.43c0-0.58-0.11-0.92-0.58-0.92c-0.46,0-0.81,0.58-1.27,1.15c-1.04,1.48-2.53,1.82-5.3,2.05
		c-1.61,0.12-3.23,0.12-5.19,0.12l-14.75,0.11c-0.69,0-0.81-0.35-0.81-1.02v-31.73c0-0.9,0.35-1.25,1.04-1.25l17.74,0.34
		c4.49,0.12,7.14,2.17,7.84,3.67c0.69,1.5,1.04,3.44,1.04,4.36c0,0.81,0.23,1.38,0.81,1.38c0.58,0,0.81-0.69,0.92-1.27
		c0.23-1.46,0.46-6.53,0.58-7.68c0.35-3.23,0.92-4.61,0.92-5.42c0-0.58-0.23-1.04-0.69-1.04c-0.46,0-0.92,0.46-1.61,0.69
		c-1.04,0.46-2.88,0.46-5.07,0.58c-2.65,0.11-26.04,0.23-28.35,0.11l-4.72-0.23c-2.53-0.11-5.65-0.11-8.3-0.11
		c-1.27,0-1.84,0.23-1.84,0.92c0,0.46,0.46,0.69,0.92,0.69c1.04-0.12,3,0,3.92,0.23c3.8,0.81,4.72,2.65,4.96,6.57
		c0.23,3.69,0.23,6.91,0.23,24.89V1596.38L206.63,1596.38z M267.77,1596.38c0,11.06,0,20.17-0.58,25.01
		c-0.46,3.34-1.04,5.88-3.34,6.34c-1.04,0.23-2.42,0.46-3.46,0.46c-0.69,0-0.92,0.35-0.92,0.69c0,0.69,0.58,0.92,1.84,0.92
		c1.73,0,4.38-0.23,6.68-0.23c2.42-0.11,4.38-0.11,4.61-0.11c1.73,0,4.49,0.11,8.99,0.34c4.49,0.12,10.83,0.35,19.47,0.35
		c4.49,0,5.42,0,6.22-3c0.58-2.42,1.5-10.25,1.5-11.18c0-0.81,0-1.73-0.69-1.73c-0.58,0-0.81,0.46-1.04,1.73
		c-0.81,4.72-2.19,7.03-5.19,8.3c-3,1.27-8.07,1.27-11.06,1.27c-11.29,0-13.02-1.5-13.37-9.45c-0.12-2.42,0-15.79,0-19.7v-10.14
		c0-0.46,0.23-0.81,0.81-0.81c1.96,0,13.37,0.23,16.48,0.58c4.49,0.46,5.53,2.42,5.99,4.03c0.46,1.5,0.46,2.65,0.46,3.8
		c0,0.58,0.23,1.04,0.81,1.04c0.81,0,0.81-1.27,0.81-2.19c0-0.81,0.23-5.07,0.46-7.38c0.35-3.8,0.92-5.76,0.92-6.45
		c0-0.69-0.23-0.92-0.58-0.92c-0.46,0-0.92,0.58-1.73,1.5c-1.04,1.15-2.65,1.38-5.42,1.61c-2.65,0.23-16.82,0.23-18.32,0.23
		c-0.58,0-0.69-0.35-0.69-1.15v-31.8c0-0.81,0.23-1.15,0.69-1.15c1.27,0,13.83,0.12,15.79,0.35c6.22,0.69,7.37,2.07,8.18,3.92
		c0.58,1.38,0.69,3.34,0.69,4.15c0,0.92,0.23,1.5,0.92,1.5c0.46,0,0.69-0.69,0.81-1.27c0.23-1.38,0.46-6.45,0.58-7.61
		c0.35-3.23,0.92-4.61,0.92-5.42c0-0.58-0.12-1.04-0.46-1.04c-0.58,0-1.04,0.46-1.61,0.58c-0.92,0.23-2.76,0.46-4.95,0.58
		c-2.65,0.12-25.58,0.12-26.39,0.12l-4.72-0.23c-2.53-0.12-5.65-0.12-8.3-0.12c-1.27,0-1.84,0.23-1.84,0.92
		c0,0.46,0.46,0.69,0.92,0.69c1.04,0,3,0.12,3.92,0.35c3.8,0.81,4.72,2.65,4.96,6.57c0.23,3.69,0.23,6.91,0.23,24.89V1596.38
		L267.77,1596.38z M340.66,1576.1c0-17.97,0-21.2,0.23-24.89c0.23-4.03,1.15-5.99,4.49-6.57c1.38-0.23,3-0.35,3.8-0.35
		c0.46,0,0.92-0.23,0.92-0.69c0-0.69-0.58-0.92-1.84-0.92c-3.46,0-11.87,0.35-12.44,0.35c-0.58,0-7.83-0.35-13.02-0.35
		c-1.27,0-1.84,0.23-1.84,0.92c0,0.46,0.46,0.69,0.92,0.69c1.04,0,3,0.12,3.92,0.35c3.8,0.81,4.72,2.65,4.96,6.57
		c0.23,3.69,0.23,6.91,0.23,24.89v20.28c0,11.06,0,20.17-0.58,25.01c-0.46,3.34-1.04,5.88-3.34,6.34c-1.04,0.23-2.42,0.46-3.46,0.46
		c-0.69,0-0.92,0.35-0.92,0.69c0,0.69,0.58,0.92,1.84,0.92c1.73,0,4.26-0.11,6.57-0.23c2.31,0,4.26-0.11,4.73-0.11
		c3.34,0,6.91,0.11,11.75,0.34c4.84,0.12,10.83,0.35,19.13,0.35c6.11,0,6.45-0.46,7.26-3.11c0.92-3.34,1.73-10.25,1.73-11.52
		s-0.11-1.73-0.69-1.73c-0.69,0-0.92,0.58-1.04,1.5c-0.35,2.19-1.5,5.07-3,6.91c-2.76,3.34-7.83,3.46-13.94,3.46
		c-8.99,0-11.98-0.81-13.83-2.65c-2.07-2.07-2.53-9.45-2.53-26.39V1576.1L340.66,1576.1z M401.79,1576.1c0-17.97,0-21.2,0.23-24.89
		c0.23-4.03,1.15-5.99,4.49-6.57c1.38-0.23,3-0.35,3.8-0.35c0.46,0,0.92-0.23,0.92-0.69c0-0.69-0.58-0.92-1.84-0.92
		c-3.46,0-11.87,0.35-12.44,0.35c-0.58,0-7.84-0.35-13.02-0.35c-1.27,0-1.84,0.23-1.84,0.92c0,0.46,0.46,0.69,0.92,0.69
		c1.04,0,3,0.12,3.92,0.35c3.8,0.81,4.72,2.65,4.96,6.57c0.23,3.69,0.23,6.91,0.23,24.89v20.28c0,11.06,0,20.17-0.58,25.01
		c-0.46,3.34-1.04,5.88-3.34,6.34c-1.04,0.23-2.42,0.46-3.46,0.46c-0.69,0-0.92,0.35-0.92,0.69c0,0.69,0.58,0.92,1.84,0.92
		c1.73,0,4.26-0.11,6.57-0.23c2.31,0,4.26-0.11,4.73-0.11c3.34,0,6.91,0.11,11.75,0.34c4.84,0.12,10.83,0.35,19.13,0.35
		c6.11,0,6.45-0.46,7.26-3.11c0.92-3.34,1.73-10.25,1.73-11.52s-0.11-1.73-0.69-1.73c-0.69,0-0.92,0.58-1.04,1.5
		c-0.35,2.19-1.5,5.07-3,6.91c-2.76,3.34-7.83,3.46-13.94,3.46c-8.99,0-11.98-0.81-13.83-2.65c-2.07-2.07-2.53-9.45-2.53-26.39
		V1576.1L401.79,1576.1z M437.35,1586.13c0,20.74,13.14,45.28,44.71,45.28c27.77,0,45.98-21.32,45.98-47.13
		c0-26.85-19.36-43.21-45.29-43.21C450.95,1541.07,437.35,1567.46,437.35,1586.13L437.35,1586.13z M448.3,1582.9
		c0-25.24,14.4-37.91,33.64-37.91c18.21,0,35.03,14.87,35.03,42.52c0,33.53-21.43,39.52-31.8,39.52
		C464.43,1627.03,448.3,1609.75,448.3,1582.9L448.3,1582.9z M596.77,1548.47c-1.38-3.94-2.07-5.43-2.88-5.43
		c-0.69,0-1.15,0.58-2.88,5.32l-24.43,65.76h-0.23c-1.73-6.13-13.71-48.45-15.44-55.85c-1.15-4.98-2.19-9.01-2.19-10.51
		c0-1.5,0.81-2.42,1.5-2.76c1.38-0.69,3.57-0.69,4.49-0.69c0.58,0,1.15-0.11,1.15-0.81c0-0.46-0.46-0.81-2.07-0.81
		c-5.76,0-10.83,0.35-11.87,0.35c-1.27,0-7.6-0.35-13.6-0.35c-1.15,0-1.84,0.23-1.84,0.81c0,0.69,0.46,0.81,1.04,0.81
		c0.81,0,3.69,0.12,5.19,0.69c3,1.15,4.49,2.88,6.34,8.99l20.51,68.33c2.31,7.84,2.88,9.1,4.03,9.1c1.38,0,1.96-1.27,3.8-6.11
		c4.15-10.72,19.94-52.89,24.08-63.95h0.23l22.59,64.07c1.61,4.49,2.3,5.99,3.46,5.99c1.27,0,1.84-1.38,4.84-9.91
		c4.49-12.9,16.13-49.55,21.2-64.18c2.19-6.34,4.03-11.18,7.49-12.44c1.27-0.46,3.46-0.58,3.92-0.58c0.69,0,1.04-0.35,1.04-0.92
		c0-0.46-0.58-0.69-1.61-0.69c-3.57,0-8.53,0.35-9.33,0.35c-1.04,0-5.88-0.35-11.75-0.35c-1.38,0-1.96,0.23-1.96,0.81
		c0,0.46,0.46,0.81,1.04,0.81c5.3,0,6.57,1.38,6.57,3.46c0,1.5-0.12,3.11-1.27,7.38c-4.03,14.75-14.63,48.16-17.74,58.77h-0.46
		L596.77,1548.47L596.77,1548.47z M676,1631.41c6.22,0,12.44-1.38,17.4-4.84c7.95-5.65,9.79-14.4,9.79-19.13
		c0-9.22-3.23-16.36-16.82-27.08l-3.23-2.53c-11.06-8.64-14.06-12.79-14.06-19.36c0-8.41,6.22-13.37,14.17-13.37
		c10.6,0,13.71,4.84,14.4,6.11c0.69,1.27,1.38,4.38,1.5,5.76c0.11,0.92,0.23,1.5,0.92,1.5c0.58,0,0.81-0.81,0.81-2.65
		c0-7.84,0.46-11.64,0.46-12.21c0-0.58-0.23-0.81-1.15-0.81c-0.92,0-1.84-0.12-4.03-0.58c-2.88-0.69-6.22-1.15-10.72-1.15
		c-14.63,0-23.85,8.41-23.85,20.74c0,7.83,2.76,14.98,14.98,25.01l5.18,4.26c9.91,8.18,13.25,12.79,13.25,20.74
		c0,7.38-5.42,15.32-16.48,15.32c-7.72,0-15.32-3.23-17.05-11.75c-0.35-1.61-0.35-3.23-0.35-4.26c0-0.92-0.11-1.27-0.81-1.27
		c-0.58,0-0.81,0.58-0.92,1.84c-0.12,1.84-0.58,6.45-0.58,12.21c0,3.11,0.11,3.57,1.73,4.38
		C665.28,1630.6,670.59,1631.41,676,1631.41L676,1631.41z M796.13,1576.1c0-17.97,0-21.2,0.23-24.89c0.23-4.03,1.15-5.99,4.26-6.57
		c1.38-0.23,2.07-0.35,2.88-0.35c0.46,0,0.92-0.23,0.92-0.69c0-0.69-0.58-0.92-1.84-0.92c-3.46,0-10.72,0.35-11.29,0.35
		c-0.58,0-7.83-0.35-13.02-0.35c-1.27,0-1.84,0.23-1.84,0.92c0,0.46,0.46,0.69,0.92,0.69c1.04,0,3,0.12,3.92,0.35
		c3.8,0.81,4.72,2.65,4.96,6.57c0.23,3.69,0.23,6.91,0.23,24.89v2.42c0,0.58-0.35,0.69-0.69,0.69h-48.86
		c-0.35,0-0.69-0.11-0.69-0.69v-2.42c0-17.97,0-21.2,0.23-24.89c0.23-4.03,1.15-5.99,4.26-6.57c1.38-0.23,2.07-0.35,2.88-0.35
		c0.46,0,0.92-0.23,0.92-0.69c0-0.69-0.58-0.92-1.84-0.92c-3.46,0-10.72,0.35-11.29,0.35c-0.58,0-7.83-0.35-13.02-0.35
		c-1.27,0-1.84,0.23-1.84,0.92c0,0.46,0.46,0.69,0.92,0.69c1.04,0,3,0.12,3.92,0.35c3.8,0.81,4.72,2.65,4.96,6.57
		c0.23,3.69,0.23,6.91,0.23,24.89v20.28c0,11.06,0,20.17-0.58,25.01c-0.46,3.34-1.04,5.88-3.34,6.34c-1.04,0.23-2.42,0.46-3.46,0.46
		c-0.69,0-0.92,0.35-0.92,0.69c0,0.69,0.58,0.92,1.84,0.92c3.46,0,10.72-0.34,11.29-0.34c0.58,0,7.83,0.34,14.17,0.34
		c1.27,0,1.84-0.34,1.84-0.92c0-0.35-0.23-0.69-0.92-0.69c-1.04,0-3.57-0.23-5.18-0.46c-3.46-0.46-4.15-3-4.49-6.34
		c-0.58-4.84-0.58-13.94-0.58-25.01v-12.1c0-0.58,0.35-0.69,0.69-0.69h48.86c0.35,0,0.69,0.23,0.69,0.69v12.1
		c0,11.06,0,20.17-0.58,25.01c-0.46,3.34-1.04,5.88-3.34,6.34c-1.04,0.23-2.42,0.46-3.46,0.46c-0.69,0-0.92,0.35-0.92,0.69
		c0,0.69,0.58,0.92,1.84,0.92c3.46,0,10.72-0.34,11.29-0.34c0.58,0,7.83,0.34,14.17,0.34c1.27,0,1.84-0.34,1.84-0.92
		c0-0.35-0.23-0.69-0.92-0.69c-1.04,0-3.57-0.23-5.18-0.46c-3.46-0.46-4.15-3-4.49-6.34c-0.58-4.84-0.58-13.94-0.58-25.01V1576.1
		L796.13,1576.1z M839.76,1576.1c0-17.97,0-21.2,0.23-24.89c0.23-4.03,1.15-5.99,4.26-6.57c1.38-0.23,2.07-0.35,2.88-0.35
		c0.46,0,0.92-0.23,0.92-0.69c0-0.69-0.58-0.92-1.84-0.92c-3.46,0-10.72,0.35-11.29,0.35c-0.58,0-7.83-0.35-11.64-0.35
		c-1.27,0-1.84,0.23-1.84,0.92c0,0.46,0.46,0.69,0.92,0.69c0.81,0,2.3,0.12,3.57,0.46c2.54,0.58,3.69,2.54,3.92,6.45
		c0.23,3.69,0.23,6.91,0.23,24.89v20.28c0,11.06,0,20.17-0.58,25.01c-0.46,3.34-1.04,5.88-3.34,6.34c-1.04,0.23-2.42,0.46-3.46,0.46
		c-0.69,0-0.92,0.35-0.92,0.69c0,0.69,0.58,0.92,1.84,0.92c3.46,0,10.72-0.34,11.29-0.34c0.58,0,7.83,0.34,14.17,0.34
		c1.27,0,1.84-0.34,1.84-0.92c0-0.35-0.23-0.69-0.92-0.69c-1.04,0-3.57-0.23-5.18-0.46c-3.46-0.46-4.15-3-4.49-6.34
		c-0.58-4.84-0.58-13.94-0.58-25.01V1576.1L839.76,1576.1z M873.7,1596.38c0,11.06,0,20.17-0.58,25.01
		c-0.46,3.34-1.04,5.88-3.34,6.34c-1.04,0.23-2.42,0.46-3.46,0.46c-0.69,0-0.92,0.35-0.92,0.69c0,0.69,0.58,0.92,1.84,0.92
		c3.46,0,10.72-0.34,11.06-0.34c0.58,0,7.83,0.34,14.17,0.34c1.27,0,1.84-0.34,1.84-0.92c0-0.35-0.23-0.69-0.92-0.69
		c-1.04,0-3.57-0.23-5.18-0.46c-3.46-0.46-4.15-3-4.49-6.34c-0.58-4.84-0.58-13.94-0.58-25.01v-47.36c0-1.15,0.23-1.96,0.92-2.19
		c1.04-0.46,3-0.69,4.95-0.69c2.65,0,9.68-0.46,15.79,5.76c6.11,6.22,6.45,13.94,6.45,17.74c0,10.6-8.76,18.78-19.93,18.78
		c-2.42,0-3.11,0.11-3.11,1.04c0,0.58,0.69,0.81,1.27,0.81c0.58,0.12,1.84,0.12,2.42,0.12c16.36,0,28.35-11.06,28.35-27.42
		c0-6.11-3.23-11.29-5.76-13.71c-1.84-1.73-7.03-6.57-21.43-6.57c-5.3,0-11.98,0.35-14.52,0.35c-0.92,0-7.83-0.35-13.02-0.35
		c-1.27,0-1.84,0.23-1.84,0.92c0,0.46,0.46,0.69,0.92,0.69c1.04,0,3,0.12,3.92,0.35c3.8,0.81,4.72,2.65,4.96,6.57
		c0.23,3.69,0.23,6.91,0.23,24.89V1596.38L873.7,1596.38z"/>
	<path class="st1" d="M906.59,1319.2c-15.27-184.48-97.8-251.36-195.68-317.98c-8.47-6.8-17.5-11.76-26.87-15.21
		c-0.48,0.41-1.2,0.55-2.22,0.4c-32.32-2.43-55.55,6.8-84.5,18.46c-37.04,14.92-78.81,35.07-111.36,53.16
		c-44.16,24.53-85.49,55.67-113.04,73.31c-27.62,17.68-41.41,21.82-41.41,21.82s-0.47-3.78-1.05-9.38
		c-7.08,5.41-14.34,11.21-20.48,16.66c0.17-3.72-1.63-14.76-3.27-28.28c-18.5,22.24-38.43,49.79-47.39,67.17
		c-19.5,37.87-36.09,87.84-43.24,110.71c71.81-157.24,397.18-298.26,460.07-274.5c79.36,29.97,204.13,123.88,230.05,283.68H906.59
		L906.59,1319.2L906.59,1319.2z"/>
	<path class="st1" d="M184.89,504.06c3.73-12.49,11.8-23.91,10.63-30.79c-8.1-28.61-18.38-66.89-24.62-89.01
		c-5.59-19.84-10.63-48.69-10.63-48.69s-3.42-11.65,11.75-15.65c35.15-9.3,93.77-24.48,171.79-29.11
		c19.58-1.17,40.43-1.68,61.54-1.41c67.99,0.87,138.66,9.87,177.96,31.63c28.88,15.98,52.23,31.33,71.03,47.14
		c41.47,34.85,65.11,79.68,73.34,102.28c3.69,10.14,2.79,15.65,2.79,15.65s1.25,9.57,0.01,22.4c-1.35,13.94-5.24,54.13-6.27,67.76
		c-0.91,11.96-1.57,19.04-1.57,19.04s-4.09,6.18-7.27-3.36c-7.7-23.1-37.47-85.25-101.3-117.52
		c-47.09-23.81-112.8-33.61-167.78-36.8c-34.78-1.98-65.27,0.44-84.03,0.44c-43.67-0.1-96.56,14.64-128.15,35.79
		c-7.48,5-22.68,17.86-33.57,29.65c-10.73,11.65-14.13,22.83-17.91,22.4C179.56,525.52,183.97,507.18,184.89,504.06L184.89,504.06
		L184.89,504.06z"/>
	<path class="st1" d="M331.51,1153.16c0,0,13.78-4.14,41.41-21.82c27.55-17.64,68.88-48.78,113.04-73.31
		c32.55-18.09,74.32-38.24,111.36-53.16c28.95-11.67,52.18-20.89,84.5-18.46c6.49,0.99,1.16-10.18-3.36-25.74
		c-5.82-20-10.66-44.48-16.79-49.81c-10.9-9.47-68.15,9.51-112.48,31.34c-44.33,21.83-138.3,67.24-181.31,101.29
		c-43.01,34.05-39.27,46.57-39.73,62.68C327.69,1122.27,331.51,1153.16,331.51,1153.16L331.51,1153.16L331.51,1153.16z"/>
	<path class="st1" d="M345.76,1022.6c-9.77,8.59-30.9,28.71-38.02,47.73c-9.39,25.09,2.68,80.75,2.24,90.1
		c6.51-5.79,14.29-11.97,21.78-17.66c-1.08-10.46-2.49-26.47-2.2-36.62c0.33-11.51-1.48-21.18,13.14-38.19l0,0
		c0.64-7.75,1.47-16.62,2.53-26.17C346.07,1034.29,346,1027.37,345.76,1022.6L345.76,1022.6L345.76,1022.6z M354.49,1055.99
		L354.49,1055.99l-0.67,0.61L354.49,1055.99L354.49,1055.99L354.49,1055.99z"/>
	<path class="st1" d="M305.98,1174.73c8.91,0,14.16,10.92,11.74,24.38c-2.42,13.46-11.6,24.37-20.51,24.37
		c-8.9,0-14.16-10.91-11.74-24.37C287.89,1185.65,297.07,1174.73,305.98,1174.73L305.98,1174.73L305.98,1174.73z"/>
	<g>
		<path class="st2" d="M263.14,1255.4c0,0,1.27-7.48,0.21-10.17c-0.22,0.44-0.72,0.74-0.72,0.74s-0.35-1.56-0.96-2.78
			c-0.54,0.62-0.61,0.4-0.61,0.4s-0.26-1.65-0.47-2.27c-0.39,0.7-0.53,0.31-0.53,0.31s-0.46-1.52-1.14-2.41
			c-0.27,0.47-0.31,0.73-0.31,0.73s-0.67-1.77-1.52-2.6c-0.25,0.72-0.25,0.72-0.25,0.72s-0.5-2-1.54-2.65
			c-0.14,0.67,0.01,1.12,0.01,1.12s-1.6-2.26-3.14-2.6c-0.2,0.88-0.24,0.77-0.24,0.77s-1.14-0.97-2.7-1.31
			c-0.07,0.7,0.01,0.93,0.01,0.93s-1.9-1.34-3.9-1.34c-0.09,0.66-0.1,0.98-0.1,0.98s-0.63-0.72-3.05-0.88
			c-0.05,0.57,0.08,0.78,0.08,0.78s-1.99-0.68-3.5-0.73c0.05,0.67,0.05,0.67,0.05,0.67s-2.92-0.67-3.91-1.01
			c0.31,0.89,0.24,0.86,0.24,0.86s-1.88-0.73-3.13-1.1c-0.04,0.42,0.01,0.74,0.01,0.74s-1.82-1.31-2.7-1.5
			c0.3,0.52,0.24,0.53,0.24,0.53s-2.16-0.75-4.16-1.18c0.41,2.1,1.68,4.29,1.68,4.29s-1.05-0.51-0.84-0.27
			c0.21,0.24,0.45,1.84,1.43,2.69c-0.27,0.05-0.6,0.08-0.6,0.08s1.09,2.25,1.78,2.63c-0.37,0.19-0.53,0.43-0.53,0.43
			s1.07,2.19,2.02,2.42c-0.48,0.42-0.71,0.5-0.71,0.5s2.01,2.42,2.49,2.51c-0.04,0.22-0.67,0.54-0.67,0.54s2.17,1.71,3.42,2.1
			c0.22-0.03-0.29,0.39-0.64,0.67c0.66,0.49,3.08,2.04,3.91,2.21c-0.52,0.16-0.94,0.19-0.86,0.48c1.19,1.25,3.8,3.29,6.26,4.16
			C243.57,1256.55,263.27,1255.6,263.14,1255.4L263.14,1255.4L263.14,1255.4z"/>
		<path class="st3" d="M265.07,1244.2c0,0,3.31,6.82,3.06,9.7c-0.34-0.35-0.9-0.5-0.9-0.5s0.1,1.59-0.15,2.94
			c-0.68-0.45-0.69-0.21-0.69-0.21s0.21,1.67,0.18,2.32c-0.56-0.55-0.58-0.15-0.58-0.15s-0.02,1.59-0.42,2.63
			c-0.4-0.37-0.5-0.61-0.5-0.61s-0.15,1.88-0.73,2.92c-0.44-0.62-0.44-0.62-0.44-0.62s0.08,2.07-0.73,2.98
			c-0.33-0.6-0.3-1.08-0.3-1.08s-0.9,2.62-2.29,3.37c-0.44-0.79-0.44-0.67-0.44-0.67s-0.83,1.26-2.22,2.02
			c-0.27-0.67-0.26-0.9-0.26-0.9s-1.45,1.82-3.36,2.38c-0.27-0.6-0.37-0.9-0.37-0.9s-0.4,0.87-2.68,1.7
			c-0.21-0.54-0.14-0.77-0.14-0.77s-1.71,1.22-3.15,1.67c-0.14-0.65-0.14-0.65-0.14-0.65s-2.62,1.46-3.47,2.07
			c0.05-0.94-0.02-0.88-0.02-0.88s-1.59,1.22-2.69,1.93c-0.16-0.39-0.2-0.71-0.2-0.71s-1.38,1.76-2.17,2.19
			c0.15-0.58,0.09-0.59,0.09-0.59s-1.86,1.34-3.67,2.31c-0.2-2.13,0.41-4.59,0.41-4.59s-0.86,0.79-0.73,0.5
			c0.13-0.29-0.08-1.89,0.61-2.98c-0.27,0.03-0.59,0.09-0.59,0.09s0.41-2.46,0.98-3.02c-0.41-0.08-0.64-0.27-0.64-0.27
			s0.41-2.4,1.26-2.89c-0.58-0.27-0.82-0.28-0.82-0.28s1.26-2.89,1.69-3.11c-0.09-0.2-0.8-0.32-0.8-0.32s1.6-2.26,2.7-2.97
			c0.22-0.04-0.39-0.29-0.8-0.46c0.49-0.66,2.38-2.82,3.13-3.22c-0.55-0.01-0.96,0.07-0.96-0.22c0.79-1.54,2.71-4.22,4.84-5.75
			C245.96,1248.59,265.14,1243.97,265.07,1244.2L265.07,1244.2L265.07,1244.2z"/>
		<path class="st2" d="M262.52,1243.49c0,0-2.11,7.28-1.37,10.08c0.27-0.4,0.8-0.65,0.8-0.65s0.17,1.59,0.64,2.87
			c0.6-0.56,0.65-0.33,0.65-0.33s0.07,1.68,0.22,2.31c0.45-0.65,0.54-0.25,0.54-0.25s0.29,1.57,0.87,2.53
			c0.32-0.43,0.39-0.69,0.39-0.69s0.47,1.82,1.22,2.75c0.33-0.67,0.33-0.67,0.33-0.67s0.27,2.04,1.23,2.8
			c0.22-0.66,0.11-1.12,0.11-1.12s1.32,2.42,2.83,2.93c0.29-0.85,0.32-0.73,0.32-0.73s1.03,1.11,2.53,1.62
			c0.15-0.7,0.1-0.93,0.1-0.93s1.73,1.55,3.71,1.77c0.16-0.64,0.21-0.95,0.21-0.95s0.53,0.79,2.93,1.23
			c0.12-0.57,0.01-0.79,0.01-0.79s1.89,0.91,3.39,1.12c0.03-0.67,0.03-0.67,0.03-0.67s2.82,1,3.77,1.46
			c-0.21-0.92-0.13-0.88-0.13-0.88s1.78,0.93,2.97,1.45c0.09-0.42,0.08-0.75,0.08-0.75s1.66,1.5,2.51,1.8
			c-0.24-0.55-0.18-0.56-0.18-0.56s2.06,1,4.01,1.66c-0.17-2.13-1.18-4.46-1.18-4.46s0.99,0.62,0.81,0.37
			c-0.18-0.26-0.24-1.88-1.11-2.83c0.27-0.02,0.6-0.01,0.6-0.01s-0.83-2.36-1.47-2.82c0.39-0.15,0.58-0.37,0.58-0.37
			s-0.81-2.3-1.73-2.63c0.52-0.36,0.76-0.41,0.76-0.41s-1.73-2.64-2.19-2.78c0.06-0.22,0.73-0.45,0.73-0.45s-1.96-1.95-3.16-2.48
			c-0.22,0.01,0.34-0.35,0.71-0.59c-0.6-0.57-2.83-2.37-3.63-2.64c0.54-0.1,0.96-0.09,0.91-0.38c-1.04-1.38-3.39-3.7-5.75-4.85
			C282.09,1244.58,262.41,1243.27,262.52,1243.49L262.52,1243.49L262.52,1243.49z"/>
		<path class="st4" d="M251.83,1259.89c0.66-0.88,1.4-1.72,2.13-2.52c0.4-0.45,1.03-1.11,1.67-1.14c0.28,1.17,0.61,3.7,1.48,4.35
			c0.81,0.22,0.63-0.22,1.52-0.21c0.9,0.98,1.88,4.38,2.76,4.44c0.71-0.17,0.28-0.47,1.23-0.38c0.59,0.67,0.47,1.18,0.85,1.72
			c0.5,0.72,1.39-0.01,1.87,0.83c0.2,0.34,0.12,0.46,0.36,0.85c0.2,0.34,0.32,0.45,0.72,0.64c0.65,0.31,1.4,0.37,2.06,0.65
			c1.54,0.65,1.58,1.48,2.2,3.06c0.25,0.63,0.47,1.31,0.66,1.92l0.79,2c0.64-0.81,1.33-1.86,1.23-4.18
			c-0.18-3.84-3.31-8.19-5.51-10.96c-2.81-3.55-5.96-5.18-10.66-5.76c-0.46-0.06-0.85-0.06-1.19,0c-1.3,0.21-2.48,1.46-3.31,2.43
			c-0.4,0.46-0.78,0.94-1.25,1.54L251.83,1259.89L251.83,1259.89L251.83,1259.89z"/>
		<path class="st4" d="M250.08,1257.04c0.01-1.1-0.06-2.21-0.14-3.3c-0.04-0.6-0.13-1.5-0.62-1.92c-0.94,0.76-2.75,2.55-3.84,2.53
			c-0.78-0.31-0.37-0.55-1.08-1.1c-1.31,0.23-4.17,2.32-4.91,1.82c-0.45-0.57,0.06-0.55-0.74-1.06c-0.86,0.16-1.09,0.65-1.72,0.84
			c-0.84,0.26-1.09-0.85-1.98-0.49c-0.37,0.15-0.38,0.29-0.82,0.47c-0.36,0.14-0.52,0.16-0.96,0.06c-0.7-0.15-1.33-0.57-2.03-0.76
			c-1.62-0.43-2.15,0.2-3.62,1.06c-0.57,0.34-1.17,0.75-1.7,1.11l-1.85,1.09c0-1.03,0.09-2.28,1.59-4.05
			c2.5-2.93,7.63-4.44,11.07-5.29c4.4-1.08,7.88-0.44,11.95,1.99c0.4,0.24,0.71,0.48,0.94,0.73c0.9,0.97,1.06,2.68,1.13,3.96
			c0.03,0.6,0.04,1.22,0.04,1.97L250.08,1257.04L250.08,1257.04L250.08,1257.04z"/>
		<path class="st5" d="M238.58,1232.72c0.64-0.94,2.51,3.27,2.7,0.62l1.84,1.02c-0.85-2.62-1.71-5.4-3.45-6.16
			C239.05,1229.9,238.7,1231.34,238.58,1232.72L238.58,1232.72L238.58,1232.72z M252.21,1239.39l3.27,1.8
			c0.68-1.55,0.25-0.81,0.75-0.98c1.63-0.51,2.73-0.97,4.86-0.52c1.24,0.26,2.53,0.8,3.38,1.65c0.81,0.81,1.49,1.68,2.39,2.19
			c2.41,1.36,4.35-0.26,7.25,1.3l4.68,2.93c1.03,0.82-0.05,0.11,1.31,0.53c-0.08,0.28-0.16,0.51-0.27,0.73l3.87,0.36
			c1.25-1.96,0.24-2.25,3.86-5.47c0.47-0.42,2.1-2.31,2.33-2.73c-0.82,0.03-1.85,1.3-2.51,1.72c0.49-0.98,1.29-1.52,1.94-1.93
			c-1.61-0.34-2.64,1.26-4.06,1.49c-1.28,0.21-0.85-0.41-2.35,0.11c-0.17,0.06-0.89,0.3-0.99,0.32c-3.44,0.53,0.4-5.16,2.88-6.72
			c1.17-0.73,2.43-2.26,5.16-2.69c0.82-0.13,0.44-0.09,0.86,0.05c1.11,0.7,0.12,0.22,0.94,0.1c0.43-0.07-0.09-0.3,0.89-0.18
			c-0.37,0.95-0.71,0.85-1.09,1.88c-0.12,0.07-2.33,2.11-2.42,2.22c0.55,0.03,1.22-0.29,1.92-0.37c4.77-0.52,4.97-3.66,8.19-7.02
			c0.25-0.27,0.51-0.49,0.75-0.73c0.42-0.42,2.21-1.48,2.78-1.52l1.07-0.83c0.95-0.54,3.09,0.64,3.91,1.25
			c-0.06,0.01-0.12-0.02-0.17,0.04l-0.71,0.22c0.35,1.19-0.15,3.24-0.9,4.74c-0.83,1.66-2.15,2.55-2.7,3.95
			c0.07-0.01,0.19-0.1,0.21-0.04l1.09-0.37c-0.98,1.14-5.21,2.3-6.77,2.64c-1.42,0.32-2.4,0.46-3.8,0.79c-3.33,0.81-4.97,0-3.2,2.22
			c1.08,1.37,2.11,2.77,3.91,3.58l-0.63,0.1c-0.04,0.01-0.12,0.03-0.18,0.04l0.08,0.53l-0.63-0.2c-2.85,4.43-8.13,8.66-11.95,9.88
			l0,0c-0.33,0.06-0.65,0.12-0.97,0.19c-0.46,0.14-0.84,0.33-1.43,0.5c-0.75,0.22-1.44,0.4-2.27,0.6c-0.22,0.05-0.45,0.12-0.68,0.18
			l-0.52,0.16c-2.99,1.17-4.99,2.52-7.01,3.49l-0.55,0.28c-0.87,0.44-1.53,0.64-2.22,0.73c-0.21,0.05-0.42,0.09-0.65,0.13
			c-4.83,0.81-8.77-1.22-12.21-2.82c-1.71-0.79-5.67-4.07-7.77-7.28c-4.09-6.26-5.9-11.24-6.52-15.49c-0.11-0.5-0.19-1.01-0.25-1.52
			c-0.18-1.61-0.19-2.82,0.23-4.55c1-4.14,0.43-1.55,0.77-4.87l0.03-1.01c0.75,0.25,1.49,0.47,2.24,0.73
			c0.26,0.08,0.57,0.25,0.83,0.22c0.8-0.1-0.08,0.19,0.14-0.11c0.01-0.02,0.03-0.07,0.04-0.08l0.09-0.19
			c1.57,0.45,4.49,0.7,5.13,2.79l0.63,1.6c0.11,0.88-0.22,0.31,0,1.94C249.28,1238.1,249.45,1236.19,252.21,1239.39L252.21,1239.39
			L252.21,1239.39z"/>
		<path class="st6" d="M252.61,1194.08c0.84,0.69,0.31,0.4,0.74,1.04c0.74,1.1,1.28,0.33,1.36,0.29c-0.2-0.25-0.39-0.54-0.56-0.73
			l-0.4-0.26c0.15,0.39,0.44,0.71,0.64,1.14c0.6,1.34,0.1,0.9,0.58,1.14c-0.29,5.77-1.49,6.92-1.94,11.31
			c-0.05,0.53-0.02,1.57-0.07,1.79c-0.18,0.86-0.82,0.76-0.79,3.21c0.02,1.91,0.01-0.17-0.56,1.67c-0.29,0.95,0.62,2.19,1.07,2.87
			c0.56,0.84,1.03,1.82,1.22,2.77c0.49,2.57-0.18,4.53,0.61,6.61c1.61,4.23,4.2,4.57,8.24,5.03c3.45,0.4,7.18,2.59,9.16,5.39
			c0.63,0.91,0.68,2.1,0.14,3.48c-3.56-0.23-5.79-3.12-9.88-3.81c-3.81-0.63-4.74-0.17-5.91,1.79c-1.33,2.26-1.37,2.23-2,1.86
			c-0.13-0.07-0.46-0.42-0.57-0.5c-0.67-0.52-1.23,0.29-1.95-3.12c-1.84-8.7-0.1-8.31-7.77-13.71c-4.68-3.3-4.86-4.64-5.49-9.09
			c-0.23-1.65,0.1-4.02-0.07-5.76c-0.11-1.24-0.41-3.12-0.31-4.16l-0.06-1.28c0.01-0.08-0.02-0.1-0.03-0.16
			c-0.29,0.09-0.02,0.22-0.88-0.15c-0.44-0.19-0.55-0.31-1.09-0.47c-0.7-0.21-1.55-0.23-2.17-0.18c-3.25,0.27-3.21,2.77-3.8,4.52
			l-0.1,0.46c0,1.34-2.39,1.82-3.3,1.72c-0.29-0.03-0.17-0.12-0.46-0.03c0.06,0.58,0.21-0.1-0.14,0.81
			c9.44,3.58,4.82,5.13,9.68,12.56c0.99,1.51,1.65,1.95,2.86,2.95c0.85,0.7,0.32,0.3,0.77,1.11l0.03-1.01
			c0.75,0.25,1.49,0.47,2.24,0.73c0.26,0.08,0.57,0.25,0.83,0.22c0.8-0.1-0.08,0.19,0.14-0.11c0.01-0.02,0.03-0.07,0.04-0.08
			l0.09-0.19c1.57,0.45,4.49,0.7,5.13,2.79l0.63,1.6c0.11,0.88-0.22,0.31,0,1.94c0.82,6.23,0.97,3.99,4.01,7.64
			c0.67,0.81,0.56,1.12,1.26,2.37l-0.7,1.23c2.02-0.75,1.48-1.52,1.51-1.79l0.85-0.15c0.79-1.78,0.31-0.99,0.82-1.15
			c1.63-0.51,2.73-0.97,4.86-0.52c1.24,0.26,2.53,0.8,3.38,1.65c0.81,0.81,1.49,1.68,2.39,2.19c2.41,1.36,4.35-0.26,7.25,1.3
			l4.68,2.93c1.03,0.82-0.05,0.11,1.31,0.53c-0.44,1.62-1.39,2-2.5,2.92l-5.14,3.59c-0.19,0.16-0.14,0.14-0.34,0.3
			c-0.29,0.24-0.17,0.14-0.36,0.26c-1.64,1.04-8.78,4.82-9.55,6.69c4.88,1.19,19.1-7.52,22.17-11.48c2.07-2.67-0.84-3.09,3.2-6.67
			c0.47-0.42,2.1-2.31,2.33-2.73c-0.82,0.03-1.85,1.3-2.51,1.72c0.49-0.98,1.29-1.52,1.94-1.93c-1.61-0.34-2.64,1.26-4.06,1.49
			c-1.28,0.21-0.85-0.41-2.35,0.11c-0.17,0.06-0.89,0.3-0.99,0.32c-3.44,0.53,0.4-5.16,2.88-6.72c1.17-0.73,2.43-2.26,5.16-2.69
			c0.82-0.13,0.44-0.09,0.86,0.05c0.98-1.36,1.29-1.7,1.94-3.5c1.59-4.47,1.45-3.33,0.63-7.19c-0.45-2.1-0.23-2.13-0.4-3.14
			c-0.48,1.17-1.12,3.23-0.9,4.42c0.58,2.95-2.34,7.76-6.66,8.35c-0.73,0.1-1.67,0.05-2.53,0.07c-0.91,0.03-1.64,0.06-2.43,0.07
			c1.04-0.06,2.32-0.19,3.59-0.24c1.38-0.06,2.33-0.2,3.39-0.7c1.55-0.73,4.36-3.8,4.12-6.33c0,0-2.59,2.51-3.26,2.75l-2.19-0.06
			c-0.78-0.05-0.69,0.08-1.65-0.16c1.34-2.62,1.17-2.82,0.84-5.33c-0.41-3.14-0.15-2.08,1.28-4.67c4.49-8.1,2.15-6.79-0.98-7.56
			l-0.44-0.06c0.38,0.41,0.12,0.34,0.54,0.68c0.55,0.44,2.43,0.67-0.11,3.84c-1.04,1.3-3.34,2.39-4.84,2.92
			c-1.23,0.44-1.54,0.47-3.15,0.04c-0.17-0.64-0.17-0.58-1.27-1.15c0.72,0.38,3.28,3.24,3.89,4.08c1.05,1.44,1.27,3.67,0.13,6.03
			c1.06,0.59,0.86,0.72,0.97,0.93l-1.98-0.67l-5.36-2c0.05-0.01,0.11-0.01,0.16-0.01c0.31-0.02,0.08,0.03,0.44,0.01
			c-0.89-1.32-5.45-1.96-7.11-1.22c-1.8-0.74-7.15-2.11-8.16-2.7l-1.38-1.73c-0.02-0.07-0.03-0.16-0.04-0.22
			c0-0.06-0.02-0.14-0.03-0.22l-0.03-0.71c-0.01-1.01-0.68-3.7-1.02-4.72l-0.77-3.94c-0.03-1.08-0.03-2.32,0.21-3.52
			c0.79-3.98,3.1-8.22,0.69-10.86c-0.62-0.68-0.78-0.58-1.55-1.04c-0.8-0.48-0.53-0.62-0.99-0.92l-0.92-0.23
			c0.03,0.36,0.21,0.42,0.52,0.89c-1.09,0.28,0.73,0.01-0.41-0.03L252.61,1194.08L252.61,1194.08L252.61,1194.08z"/>
		<path class="st5" d="M257.95,1219.29l1.38,1.73c1.02,0.59,6.36,1.96,8.16,2.7c1.66-0.73,6.22-0.09,7.11,1.22
			c-0.36,0.03-0.12-0.03-0.44-0.01c-0.04,0-0.11,0-0.16,0.01l5.36,2c0.19-1.22-0.11-0.68-0.16-1.85c-0.06-1.44,0.3-1.23-0.25-2.88
			c-0.01-0.03-0.03-0.09-0.04-0.13l-1.76-2.27c-0.04-0.03-0.09-0.07-0.12-0.09c-2.51-1.96-3.43-1.72-6.08-2.78
			c-1.91-0.75-1.6-1.8-2.06-5.31c-0.18-1.36-0.64-0.95-1.43-3.78c-0.9-3.22-2.35-0.14-1.4-2.83c0.74-0.28-0.59-0.46,1.1-0.06
			c0.33,0.08,0.94,0.46,1.07,0.57c0.69,0.6-0.01-0.11,0.53,0.74l1.2,2.02c0.58,0.79,0.84,0.86,1.05,1.72
			c1.11,0.39,4.13,0.96,5.07,0.56c0.49-0.2,0.88-0.63,1.01-1.23c-0.55-0.51-1.61-0.66-1.91-2.45c-0.11-0.63,0.04-0.53-0.18-1.03
			c-0.27-0.61-1.13-1.12-2.02-1.45c-1.67-0.61-1.56-0.2-2.97-0.15c0.21-0.33,0.4-0.51,0.45-0.56c0.49-0.48,1.11-0.74,1.73-0.64
			c0.48,0.08,2.25,1.05,2.54,1.34c-1.01-0.58,1.45-1.31,1.91-1.44c2.03-0.57,2.17,0.06,2.66-1.06l0.92,0.44
			c-0.19-0.43-0.02-0.07-0.28-0.4c-1.03-1.29-0.24-0.51-1.1-1.89c-0.55-0.9-0.35-0.17-0.36-1.16c2.87-0.31,1.08,0.64,2.82,2.1
			c2.33,1.97,4.48,1.28,6.03,3.33c0.39,0.5,0.73,0.95,1.02,1.56c1.3,2.76,1.93,2.07,2.79,3.04l0.36,0.72
			c0.08,0.26,0.22,0.76,0.27,0.99c0.13,0.54,0.19,1.34,0,2.01c-0.46,1.65-1.24,3.48-1.82,5.13c-0.29,0.82-0.62,1.88-0.72,2.48
			c-0.1,0.59-0.09,0.51-0.1,1.06c-0.03,1.38-0.32,0.89-0.12,2.15l0.74,2.9c-0.59,0.78,0.45-0.29-0.25,0.19l-1.33,0.82
			c-1.05,0.36-1.09-0.28-2.03,0.66l2.19,0.06c0.67-0.24,3.26-2.75,3.26-2.76c0.24,2.54-2.57,5.6-4.12,6.34
			c-1.05,0.5-2,0.64-3.39,0.7c-1.27,0.05-2.55,0.17-3.59,0.24c0.79-0.01,1.52-0.04,2.43-0.07c0.86-0.03,1.8,0.02,2.53-0.07
			c4.32-0.59,7.24-5.4,6.66-8.35c-0.23-1.19,0.42-3.25,0.9-4.42c0.17,1.01-0.05,1.04,0.4,3.14c0.82,3.86,0.96,2.72-0.63,7.19
			c-0.65,1.8-0.95,2.14-1.94,3.5c1.11,0.7,0.12,0.22,0.94,0.1c0.43-0.07-0.09-0.3,0.89-0.18c-0.37,0.95-0.71,0.85-1.09,1.88
			c0.26-0.65,2.11-2.75,2.72-3.74c2.27-3.65,2.82-5.52,5.86-7.27c1.28-0.74,2.59-1.56,3.18-3.36c1.23-3.76-1.04-5.5-3.25-7.91
			c-2.26-2.48-2.86-1.56-3.36-3.02c-0.46-1.32-1.21-2.73-2.52-3.62l1.3-0.43c-1.4-0.21-1.62-0.08-2.28-1.33
			c-0.33-0.61-0.64-1.65-0.49-2.48c-0.6,2,0.79,3.33,1.86,4.7c0.29,0.38,0.59,0.67,0.84,1.07c0.08,0.13,0.28,0.47,0.34,0.66
			c0.39,1.22-0.44,0.41,0.06,1.69c1.09,2.85-0.51,4.22-2.08,7.31c-0.76,1.5-1.44,3.25-1.76,4.92c-0.16,0.84-0.14,0.95-0.7,1.32
			c-0.76-1.3,0.22,0.95-0.24-0.52c-0.65-2.09,1.77-6.73,2.21-8.08c0.43-1.33,0.73-4.97,0.13-5.52c-0.19-0.18,0.51,0.4-0.31-0.17
			c-0.54-0.38-3.98-5.53-5.2-6.6c-1.22-1.07-4.43-1.38-6.21-2.8c-1.05-0.84-0.7-1.31-0.63-1.56c1.98-0.23,4.34,1.15,6.4,1.72
			c0.44-0.24,0.3-0.41,0.75-0.29c-0.23-0.33-4.5-4-5.19-4.34c-2.13-0.99-1.86-0.65-3.52-0.42c-1.03,0.14-2.18-0.12-3.34,0.09
			c0.02,0.61-0.09,0.18,0.23,0.72c0.01,0.02,0.29,0.38,0.35,0.48c0.31,0.53,0.19,0.72,0.21,1.32l0.04,0.46
			c0.03,0.91-0.22,0.27-1.06,1.85c-3.61-1.07-2.66-0.96-5.89,0.05l-0.68,0.22c-1.79,0.37-0.87,0.41-3.12,1.21l-3.46,2.14
			c-0.77,0.77-1.79,2.21-2.25,3.36c-1.17,2.93-0.99,3.82-1.37,6.31c-0.2,1.3-0.08,0.72,0.07,1.71
			C259.47,1217.01,258.6,1217.72,257.95,1219.29L257.95,1219.29L257.95,1219.29z"/>
		<path class="st5" d="M240.41,1198.54c-1.31,1.78-1.68,1.87-2.41,4.36c0.01,0.06,0.04,0.08,0.03,0.16l0.06,1.28
			c-0.1,1.04,0.2,2.91,0.31,4.16c0.17,1.73-0.17,4.1,0.07,5.76c0.62,4.45,0.8,5.79,5.49,9.09c7.67,5.4,5.93,5.01,7.77,13.71
			c0.72,3.41,1.29,2.6,1.95,3.12c0.11,0.08,0.44,0.43,0.57,0.5c0.64,0.36,0.67,0.4,2-1.86c1.16-1.97,2.1-2.42,5.91-1.79
			c4.09,0.68,6.32,3.57,9.88,3.81c0.55-1.38,0.49-2.57-0.14-3.48c-1.98-2.81-5.72-4.99-9.16-5.39c-4.03-0.46-6.63-0.8-8.23-5.03
			c-0.79-2.08-0.12-4.04-0.61-6.61c-0.18-0.96-0.66-1.93-1.22-2.77c-0.45-0.67-1.36-1.92-1.07-2.87c0.57-1.84,0.57,0.24,0.56-1.67
			c-0.02-2.44,0.61-2.35,0.79-3.21c0.04-0.22,0.01-1.26,0.07-1.79c0.46-4.39,1.65-5.55,1.94-11.31c-0.8-0.06,0.61-0.05-1.1-0.68
			c-0.68,0.51-1.2,0.47-1.84,0.84l-1.79,1.28c-0.05,0.03-0.2,0.15-0.25,0.19c-2.08,1.7-4.01,4.47-4.14,7.24
			c-0.13,2.63,0.99,5.22,1.83,7.64l1.42,5.7c0.1,1.26,0.9,4.43,0.17,6.29c-1.1-0.4-3.27-1.6-4.29-2.23
			c-0.92-0.57-0.86-0.59-0.85-1.68c0.12-9.96-5.11-10.79-4.71-13.91c0.16-1.34,0.4-0.38-0.03-1.56c-0.67-1.89-2.12-2.97,0.08-5.7
			C239.94,1199.52,240.43,1199.22,240.41,1198.54L240.41,1198.54L240.41,1198.54z"/>
		<path class="st7" d="M254.41,1193.16c0.45,0.3,0.19,0.44,0.99,0.92c0.78,0.46,0.94,0.36,1.56,1.04c2.4,2.65,0.1,6.88-0.69,10.86
			c-0.23,1.2-0.24,2.43-0.21,3.52l0.77,3.94c0.35,1.02,1.01,3.71,1.02,4.72l0.03,0.71c0.01,0.07,0.03,0.15,0.03,0.22
			c0.01,0.06,0.01,0.15,0.04,0.22c0.65-1.57,1.52-2.28,1.24-4.09c-0.15-0.99-0.28-0.41-0.07-1.71c0.38-2.5,0.2-3.39,1.37-6.31
			c0.46-1.15,1.49-2.59,2.25-3.36l3.46-2.14c2.25-0.81,1.33-0.84,3.12-1.21l0.68-0.22c3.22-1.01,2.28-1.13,5.89-0.05
			c0.84-1.58,1.1-0.93,1.06-1.85l-0.04-0.46c-0.02-0.61,0.1-0.79-0.21-1.32c-0.06-0.09-0.34-0.46-0.35-0.48
			c-0.32-0.55-0.22-0.11-0.23-0.72c1.16-0.21,2.31,0.05,3.34-0.09c1.65-0.23,1.39-0.57,3.52,0.42c0.7,0.34,4.96,4.01,5.19,4.34
			c-0.45-0.12-0.32,0.04-0.75,0.29c-2.06-0.56-4.42-1.94-6.4-1.72c-0.07,0.25-0.43,0.72,0.63,1.56c1.78,1.42,5,1.73,6.21,2.8
			c1.21,1.07,4.65,6.22,5.2,6.6c0.82,0.57,0.12,0,0.31,0.17c0.61,0.55,0.3,4.18-0.13,5.52c-0.44,1.35-2.86,5.98-2.21,8.08
			c0.46,1.47-0.51-0.78,0.24,0.52c0.56-0.37,0.54-0.48,0.7-1.32c0.33-1.67,1-3.42,1.76-4.92c1.57-3.09,3.17-4.46,2.08-7.31
			c-0.5-1.28,0.33-0.47-0.06-1.69c-0.06-0.19-0.26-0.53-0.34-0.66c-0.25-0.4-0.54-0.7-0.84-1.07c-1.07-1.37-2.46-2.7-1.86-4.7
			l0.11-2.24c-1.09,0.19-2.32,0.81-3.66-0.05c-0.59-0.38-2.07-2-2.67-2.59c-2.18-2.16-3.19-3.08-3.79-5.68
			c-0.68,0.21-0.41,0.18-0.99,0.68c-2.51,2.18-7.05-0.09-7.24,2.22c0,0.01,0.02,0.05,0,0.08c-7.19-3.02-9-4.75-15.6-2.49
			c-0.72,0.24-1.38,0.5-2.22,0.72C255.97,1193.01,255.08,1193,254.41,1193.16L254.41,1193.16L254.41,1193.16z"/>
		<path class="st8" d="M279.37,1226.94l1.98,0.67c-0.11-0.21,0.09-0.35-0.97-0.93c1.14-2.36,0.91-4.59-0.13-6.03
			c-0.61-0.84-3.17-3.7-3.89-4.08c1.09,0.57,1.1,0.52,1.27,1.14c1.61,0.44,1.92,0.42,3.15-0.03c1.5-0.53,3.79-1.62,4.84-2.92
			c2.55-3.17,0.67-3.39,0.11-3.84c-0.42-0.34-0.15-0.27-0.54-0.68l0.44,0.06c-0.81-2.34-0.37-3.59-1.53-4.69
			c-0.23-0.22-0.24-0.21-0.43-0.4l-0.44-0.44c-2.83-2.53-3.36-0.89-3.02-2.45l-0.92-0.44c-0.49,1.12-0.63,0.5-2.66,1.06
			c-0.46,0.13-2.92,0.86-1.91,1.44c-0.29-0.29-2.06-1.27-2.54-1.34c-0.62-0.1-1.24,0.16-1.73,0.64c-0.05,0.05-0.24,0.23-0.45,0.56
			c1.41-0.04,1.3-0.46,2.97,0.15c0.89,0.33,1.75,0.84,2.02,1.45c0.22,0.5,0.07,0.4,0.18,1.03c0.3,1.79,1.36,1.94,1.91,2.45
			c-0.13,0.6-0.52,1.03-1.01,1.23c-0.94,0.4-3.96-0.17-5.07-0.56c-0.22-0.86-0.48-0.94-1.05-1.72l-1.2-2.02
			c-0.53-0.85,0.17-0.14-0.53-0.74c-0.13-0.11-0.75-0.49-1.07-0.57c-1.69-0.4-0.36-0.22-1.1,0.06c-0.95,2.68,0.49-0.39,1.4,2.83
			c0.79,2.83,1.25,2.42,1.43,3.78c0.46,3.5,0.16,4.56,2.06,5.31c2.65,1.05,3.57,0.81,6.08,2.78c0.04,0.03,0.08,0.07,0.12,0.09
			l1.76,2.27c0.01,0.04,0.03,0.09,0.04,0.13c0.56,1.64,0.19,1.43,0.25,2.88C279.25,1226.26,279.56,1225.72,279.37,1226.94
			L279.37,1226.94L279.37,1226.94z"/>
		<path class="st9" d="M252.61,1194.08v0.59c-3.58-0.81-6.29,1.61-7.98,1.79c-1.58,0.17-1.85-0.85-2.95-1.21
			c-0.59,1.2-0.05,1.88-1.26,3.29c0.02,0.68-0.47,0.98-0.95,1.57c-2.19,2.72-0.75,3.81-0.08,5.7c0.42,1.18,0.19,0.23,0.03,1.56
			c-0.39,3.13,4.83,3.95,4.71,13.91c-0.01,1.09-0.07,1.11,0.85,1.68c1.02,0.63,3.19,1.83,4.29,2.23c0.72-1.86-0.07-5.03-0.17-6.29
			l-1.42-5.7c-0.84-2.42-1.96-5.01-1.83-7.64c0.13-2.77,2.07-5.54,4.14-7.24c0.05-0.05,0.2-0.16,0.25-0.19l1.79-1.28
			c0.64-0.37,1.15-0.33,1.84-0.84c1.7,0.63,0.3,0.62,1.1,0.68c-0.48-0.24,0.03,0.21-0.58-1.14c-0.2-0.43-0.49-0.74-0.64-1.13
			l0.4,0.26c0.16,0.19,0.37,0.48,0.56,0.73c-0.08,0.04-0.61,0.81-1.36-0.29C252.92,1194.48,253.45,1194.77,252.61,1194.08
			L252.61,1194.08L252.61,1194.08z"/>
		<path class="st7" d="M295.5,1205.99l-1.3,0.43c1.32,0.89,2.07,2.29,2.52,3.62c0.5,1.46,1.11,0.54,3.36,3.02
			c2.21,2.41,4.48,4.15,3.25,7.91c-0.59,1.8-1.9,2.62-3.18,3.36c-3.04,1.75-3.6,3.61-5.86,7.27c-0.62,0.99-2.46,3.09-2.72,3.74
			c-0.11,0.07-2.33,2.11-2.42,2.22c0.55,0.03,1.22-0.29,1.92-0.37c4.77-0.52,4.97-3.66,8.19-7.02c0.25-0.27,0.51-0.49,0.75-0.73
			c0.42-0.41,2.21-1.47,2.78-1.52c0-0.04,0.02-0.16,0.01-0.13c0,0.01-0.23-0.05,0.83-1.21c1.51-1.65,2.02-2.04,3.35-4.37
			c1.15-2,2.86-5.65,3.55-7.93c-1.49,0.23-3.18-0.78-4.21-1.8C304.17,1210.38,302.3,1205.62,295.5,1205.99L295.5,1205.99
			L295.5,1205.99z"/>
		<path class="st7" d="M293.99,1246.77c1.2,0.17,1.18-0.08,2.2-0.27c0.84-0.16,1.48-0.02,2.51,0.16c2.78,0.47,2.25-0.19,3.71-2.19
			c1.67,0.61,1.43,2,0.95,3.58c1.31,0.29,4.04-1.48,4.89-2.44c1.99-2.26,1.21-3.67,0.84-5.76c-0.77-4.25,2.82-6.49-1.33-11.51
			c-0.06,0.01-0.12-0.03-0.17,0.04l-0.71,0.22c0.35,1.19-0.15,3.24-0.9,4.74c-0.83,1.66-2.15,2.55-2.7,3.95
			c0.07-0.01,0.19-0.1,0.21-0.04l1.09-0.38c-0.98,1.14-5.21,2.3-6.77,2.64c-1.41,0.32-2.4,0.46-3.8,0.79c-3.33,0.81-4.97,0-3.2,2.22
			c1.08,1.37,2.11,2.77,3.91,3.58l-0.63,0.1c-0.04,0.01-0.12,0.03-0.18,0.04L293.99,1246.77L293.99,1246.77L293.99,1246.77z"/>
		<path class="st7" d="M249.11,1254.4c0.73,3.76,6.73,6.97,9.7,6.59c6.48-0.83,16.77-10.31,17.03-11.44
			c-1.52-4.15-10.58-0.61-13.08-0.64c-3.43-0.06-4.52-2.12-7.32-2.55c-0.94-0.14-2.28,0.19-3.1,0.62c-0.19,0.1-0.04,1.28-0.69,2.76
			C250.78,1251.73,249.06,1254.18,249.11,1254.4L249.11,1254.4L249.11,1254.4z"/>
		<path class="st7" d="M245.17,1250.88c3.29,3.41,6.52,0.21,6.23-3.92c-0.21-3.03-4.57-5.98-6.4-8.29c-2-2.52-2.47-9.21-5.33-10.46
			c-1.27,3.46-1.4,5.9-0.79,8.89C239.8,1241.51,241.97,1247.55,245.17,1250.88L245.17,1250.88L245.17,1250.88z"/>
		<path class="st10" d="M280.21,1202.34c-0.34,1.56,0.19-0.07,3.02,2.45l0.44,0.44c0.18,0.19,0.19,0.18,0.43,0.4
			c1.16,1.1,0.72,2.35,1.53,4.69c3.13,0.77,5.47-0.54,0.98,7.56c-1.44,2.6-1.69,1.54-1.28,4.67c0.33,2.51,0.49,2.7-0.84,5.33
			c0.97,0.24,0.87,0.11,1.65,0.16c0.94-0.94,0.98-0.3,2.03-0.66l1.33-0.82c0.7-0.48-0.34,0.6,0.25-0.19l-0.74-2.9
			c-0.2-1.27,0.09-0.77,0.12-2.15c0.01-0.56,0-0.48,0.1-1.06c0.1-0.6,0.43-1.66,0.72-2.48c0.58-1.65,1.36-3.48,1.82-5.13
			c0.19-0.68,0.13-1.47,0-2.01c-0.05-0.23-0.2-0.73-0.27-0.99l-0.36-0.72c-0.86-0.97-1.49-0.28-2.79-3.04
			c-0.29-0.61-0.63-1.06-1.02-1.56c-1.55-2.06-3.7-1.36-6.03-3.33c-1.73-1.46,0.06-2.41-2.82-2.1c0.01,0.99-0.19,0.25,0.36,1.16
			c0.86,1.39,0.07,0.6,1.1,1.89C280.2,1202.27,280.03,1201.91,280.21,1202.34L280.21,1202.34L280.21,1202.34z"/>
	</g>
</g>
</svg>
